<?xml version="1.0" encoding="UTF-8"?>
<svg width="13px" height="23px" viewBox="0 0 13 23" version="1.1" xmlns="http://www.w3.org/2000/svg" xmlns:xlink="http://www.w3.org/1999/xlink">
    <!-- Generator: sketchtool 52.5 (67469) - http://www.bohemiancoding.com/sketch -->
    <title>0661FB27-98BB-439D-A8D9-46E08DD6AA8E</title>
    <desc>Created with sketchtool.</desc>
    <g id="🎨-Style-Guide" stroke="none" stroke-width="1" fill="none" fill-rule="evenodd">
        <g id="Icons-(Light)" transform="translate(-76.000000, -633.000000)">
            <g id="Standard" transform="translate(32.000000, 569.000000)">
                <g id="Standard-Icons" transform="translate(0.000000, 63.000000)">
                    <g id="Icon/Arrow-Left/Normal" transform="translate(38.000000, 0.000000)">
                        <rect id="24pt-Bounding-Box" x="0" y="0" width="24" height="24"></rect>
                        <path d="M11.4248267,17.9555959 L1.35940592,7.88946924 C0.945758863,7.47582218 0.945758863,6.80523395 1.35940592,6.39229277 C1.77305298,5.97864571 2.44293533,5.97864571 2.85658239,6.39229277 L12.1737679,15.7094782 L21.4909533,6.39229277 C21.9046004,5.97864571 22.5744827,5.97864571 22.9881298,6.39229277 C23.4017768,6.80523395 23.4017768,7.47582218 22.9881298,7.88946924 L12.922709,17.9555959 C12.7158855,18.1624194 12.4448267,18.2654782 12.1737679,18.2654782 C11.902709,18.2654782 11.6316502,18.1624194 11.4248267,17.9555959 Z" id="Combined-Shape" fill="#303133" fill-rule="evenodd" transform="translate(12.173768, 12.173768) scale(-1, 1) rotate(-90.000000) translate(-12.173768, -12.173768) "></path>
                    </g>
                </g>
            </g>
        </g>
    </g>
</svg>