<?xml version="1.0" encoding="UTF-8"?>
<svg width="20px" height="24px" viewBox="0 0 20 24" version="1.1" xmlns="http://www.w3.org/2000/svg" xmlns:xlink="http://www.w3.org/1999/xlink">
    <!-- Generator: sketchtool 60.1 (101010) - https://sketch.com -->
    <title>CEC42C76-B07D-4326-B810-D6C47C05120F</title>
    <desc>Created with sketchtool.</desc>
    <g id="Homepage" stroke="none" stroke-width="1" fill="none" fill-rule="evenodd">
        <g id="Category-Icons" transform="translate(-464.000000, -83.000000)">
            <g id="Group-6-Copy-7" transform="translate(444.000000, 65.000000)">
                <g id="Group-5">
                    <g id="Books" transform="translate(18.000000, 18.000000)">
                        <rect id="24pt-Bounding-Box" x="0" y="0" width="24" height="24"></rect>
                        <path d="M21,0 C21.5522847,0 22,0.44771525 22,1 L22,1 L22,23 C22,23.5522847 21.5522847,24 21,24 L21,24 L5,24 C3.34314575,24 2,22.6568542 2,21 L2,21 L2,3 C2,1.34314575 3.34314575,0 5,0 L5,0 Z M20,20 L5,20 C4.48716416,20 4.06449284,20.3860402 4.00672773,20.8833789 L4.00672773,20.8833789 L4,21 C4,21.5522847 4.44771525,22 5,22 L5,22 L20,22 L20,20 Z M20,2 L14,2 L14,13 C14,13.6432441 13.4062261,14.1080975 12.7961982,13.979234 L12.6817685,13.948013 L10.018,13.054 L7.31424769,13.949341 C6.70516816,14.1509565 6.07841339,13.735963 6.00678508,13.1181214 L6.00678508,13.1181214 L6,13 L6,2 L5,2 C4.52661307,2 4.13005271,2.32893365 4.02641071,2.77070917 L4.00672773,2.88337887 L4,3 L4.00008893,18.1706743 C4.31284272,18.0601428 4.64939781,18 5,18 L5,18 L20,18 L20,2 Z M12,2 L8,2 L8,11.615 L9.70674841,11.050659 C9.87108258,10.9962616 10.0459854,10.9856804 10.2143998,11.0188794 L10.2143998,11.0188794 L10.3392276,11.051987 L12,11.609 L12,2 Z" id="Combined-Shape" fill="#303133"></path>
                    </g>
                </g>
            </g>
        </g>
    </g>
</svg>