<?xml version="1.0" encoding="UTF-8"?>
<svg width="22px" height="23px" viewBox="0 0 22 23" version="1.1" xmlns="http://www.w3.org/2000/svg" xmlns:xlink="http://www.w3.org/1999/xlink">
    <!-- Generator: sketchtool 58 (101010) - https://sketch.com -->
    <title>51DCD1C1-8838-4A14-A1EE-A09A97416FDE</title>
    <desc>Created with sketchtool.</desc>
    <g id="🎨-Style-Guide" stroke="none" stroke-width="1" fill="none" fill-rule="evenodd">
        <g id="Icons-(Light)" transform="translate(-375.000000, -632.000000)">
            <g id="Standard" transform="translate(32.000000, 569.000000)">
                <g id="Standard-Icons" transform="translate(0.000000, 63.000000)">
                    <g id="Icon/Calendar" transform="translate(342.000000, 0.000000)">
                        <rect id="24pt-Bounding-Box" x="0" y="0" width="24" height="24"></rect>
                        <path d="M18,0 C18.5522847,-1.01453063e-16 19,0.44771525 19,1 L19,1.999 L23,2 L23,23 L1,23 L1,2 L5,1.999 L5,1 C5,0.44771525 5.44771525,1.01453063e-16 6,0 C6.55228475,-1.01453063e-16 7,0.44771525 7,1 L7,1.999 L17,1.999 L17,1 C17,0.44771525 17.4477153,1.01453063e-16 18,0 Z M21,10 L3,10 L3,21 L21,21 L21,10 Z M5,4 L3,4 L3,8 L21,8 L21,4 L19,4 L19,5 C19,5.55228475 18.5522847,6 18,6 C17.4477153,6 17,5.55228475 17,5 L17,4 L7,4 L7,5 C7,5.55228475 6.55228475,6 6,6 C5.44771525,6 5,5.55228475 5,5 L5,4 Z" id="Combined-Shape" fill="#303133"></path>
                    </g>
                </g>
            </g>
        </g>
    </g>
</svg>