<?xml version="1.0" encoding="UTF-8"?>
<svg width="44px" height="40px" viewBox="0 0 44 40" version="1.1" xmlns="http://www.w3.org/2000/svg" xmlns:xlink="http://www.w3.org/1999/xlink">
    <!-- Generator: sketchtool 55.2 (78181) - https://sketchapp.com -->
    <title>A79CC38D-CC5A-4EF7-9E4E-2AC4614E1C4F</title>
    <desc>Created with sketchtool.</desc>
    <g id="Homepage" stroke="none" stroke-width="1" fill="none" fill-rule="evenodd">
        <g id="Restaurants---Inner---Empty-Cart" transform="translate(-1675.000000, -2466.000000)" fill="#303133">
            <g id="Advantages-block" transform="translate(0.000000, 2450.000000)">
                <g id="Advantage-Copy-4" transform="translate(1672.000000, 11.000000)">
                    <g id="Icon-/-Card">
                        <path d="M9,27 L9,25 L35,25 L35,27 L9,27 Z M9,31 L9,29 L17,29 L17,31 L9,31 Z M31.0001,37 C32.1031,37 33.0001,36.103 33.0001,35 C33.0001,33.897 32.1031,33 31.0001,33 C30.8211,33 30.6511,33.031 30.4861,33.075 C30.8031,33.649 31.0001,34.298 31.0001,35 C31.0001,35.702 30.8031,36.352 30.4861,36.925 C30.6511,36.969 30.8211,37 31.0001,37 Z M27.0001,37 C28.1031,37 29.0001,36.103 29.0001,35 C29.0001,33.897 28.1031,33 27.0001,33 C25.8971,33 25.0001,33.897 25.0001,35 C25.0001,36.103 25.8971,37 27.0001,37 Z M31.0001,31 C33.2091,31 35.0001,32.791 35.0001,35 C35.0001,37.209 33.2091,39 31.0001,39 C30.2681,39 29.5901,38.789 29.0001,38.445 C28.4101,38.789 27.7321,39 27.0001,39 C24.7911,39 23.0001,37.209 23.0001,35 C23.0001,32.791 24.7911,31 27.0001,31 C27.7321,31 28.4101,31.211 29.0001,31.555 C29.5901,31.211 30.2681,31 31.0001,31 Z M42.8599,29 C44.0399,29 44.9999,28.04 44.9999,26.86 L44.9999,15.069 L10.9999,15.069 L10.9999,19 L36.8599,19 C39.1459,19 40.9999,20.854 40.9999,23.14 L40.9999,29 L42.8599,29 Z M38.9999,40.86 L38.9999,23.14 C38.9999,21.96 38.0399,21 36.8599,21 L7.1399,21 C5.9599,21 4.9999,21.96 4.9999,23.14 L4.9999,40.86 C4.9999,42.04 5.9599,43 7.1399,43 L36.8599,43 C38.0399,43 38.9999,42.04 38.9999,40.86 Z M13.1399,7 C11.9599,7 10.9999,7.96 10.9999,9.14 L10.9999,10.944 L44.9999,10.944 L44.9999,9.14 C44.9999,7.96 44.0399,7 42.8599,7 L13.1399,7 Z M42.8599,5 C45.1459,5 46.9999,6.854 46.9999,9.14 L46.9999,26.86 C46.9999,29.146 45.1459,31 42.8599,31 L40.9999,31 L40.9999,40.86 C40.9999,43.146 39.1459,45 36.8599,45 L7.1399,45 C4.8539,45 2.9999,43.146 2.9999,40.86 L2.9999,23.14 C2.9999,20.854 4.8539,19 7.1399,19 L8.9999,19 L8.9999,9.14 C8.9999,6.854 10.8539,5 13.1399,5 L42.8599,5 Z" id="Combined-Shape"></path>
                    </g>
                </g>
            </g>
        </g>
    </g>
</svg>