<?xml version="1.0" encoding="UTF-8"?>
<svg width="24px" height="22px" viewBox="0 0 24 22" version="1.1" xmlns="http://www.w3.org/2000/svg" xmlns:xlink="http://www.w3.org/1999/xlink">
    <!-- Generator: sketchtool 60.1 (101010) - https://sketch.com -->
    <title>70517DF6-7CB5-4531-9A7F-A344178CD79B</title>
    <desc>Created with sketchtool.</desc>
    <g id="Homepage" stroke="none" stroke-width="1" fill="none" fill-rule="evenodd">
        <g id="Category-Icons" transform="translate(-392.000000, -84.000000)">
            <g id="Group-6-Copy-5" transform="translate(374.000000, 65.000000)">
                <g id="Group-5">
                    <g id="Clothes" transform="translate(18.000000, 18.000000)">
                        <rect id="24pt-Bounding-Box" x="0" y="0" width="24" height="24"></rect>
                        <path d="M9,1 C9.55228475,1 10,1.44771525 10,2 C10,3.06065749 10.8284768,3.93556398 11.8526061,3.99532439 L11.8526061,3.99532439 L12,4 C13.1045695,4 14,3.1045695 14,2 L14,2 L14.0067277,1.88337887 C14.0644928,1.38604019 14.4871642,1 15,1 L15,1 L18,1 C18.1855946,1 18.3675274,1.05164936 18.5254373,1.14916768 L18.5254373,1.14916768 L23.5254373,4.23695182 C23.9655233,4.5087299 24.1257291,5.0712616 23.8948642,5.53412267 L23.8948642,5.53412267 L21.4317905,10.4723395 C21.2335664,10.8697589 20.7969845,11.0888296 20.3598883,11.010205 L20.3598883,11.010205 L19,10.765 L19,22 C19,22.5128358 18.6139598,22.9355072 18.1166211,22.9932723 L18.1166211,22.9932723 L18,23 L6,23 C5.44771525,23 5,22.5522847 5,22 L5,22 L5,10.765 L3.64011167,11.010205 C3.24275149,11.0816819 2.84581634,10.9071296 2.62800164,10.5762151 L2.62800164,10.5762151 L2.56820954,10.4723395 L0.105135814,5.53412267 C-0.125729089,5.0712616 0.0344767373,4.5087299 0.474562692,4.23695182 L0.474562692,4.23695182 L5.47456269,1.14916768 C5.63247257,1.05164936 5.81440541,1 6,1 L6,1 Z M8.126,3 L6.282,3 L2.302,5.458 L4.023,8.909 L5.82296206,8.5854564 C6.39792916,8.48203171 6.92933895,8.88986854 6.99351921,9.45470481 L6.99351921,9.45470481 L7,9.56966043 L7,21 L17,21 L17,9.56966043 C17,8.98546539 17.4954743,8.53465233 18.0627508,8.57148332 L18.0627508,8.57148332 L18.1770379,8.5854564 L19.976,8.909 L21.697,5.458 L17.717,3 L15.873,3 L15.8304703,3.15525035 C15.430562,4.48101232 14.3589299,5.51667458 13.000204,5.86922107 L13,9 C13,9.55228475 12.5522847,10 12,10 C11.4871642,10 11.0644928,9.61395981 11.0067277,9.11662113 L11,9 L11.000123,5.87402134 C9.65181078,5.52733555 8.58381947,4.49717976 8.177427,3.18103431 L8.177427,3.18103431 L8.126,3 Z" id="Combined-Shape" fill="#303133"></path>
                    </g>
                </g>
            </g>
        </g>
    </g>
</svg>