<?xml version="1.0" encoding="UTF-8"?>
<svg width="20px" height="24px" viewBox="0 0 20 24" version="1.1" xmlns="http://www.w3.org/2000/svg" xmlns:xlink="http://www.w3.org/1999/xlink">
    <!-- Generator: sketchtool 60.1 (101010) - https://sketch.com -->
    <title>81094967-C7BD-4097-8BB4-2209E38C9CCF</title>
    <desc>Created with sketchtool.</desc>
    <g id="Homepage" stroke="none" stroke-width="1" fill="none" fill-rule="evenodd">
        <g id="Category-Icons" transform="translate(-44.000000, -83.000000)">
            <g id="Group-6" transform="translate(24.000000, 65.000000)">
                <g id="Group-5">
                    <g id="Food" transform="translate(18.000000, 18.000000)">
                        <rect id="24pt-Bounding-Box" x="0" y="0" width="24" height="24"></rect>
                        <path d="M12.8786796,2.04193509 C14.2023781,0.718236582 16.0122523,0.0655077352 17.8646561,0.20742678 L17.8646561,0.20742678 L18.0426902,0.225045458 C18.5130483,0.27159323 18.8865836,0.641104708 18.9382228,1.11093117 C19.1467388,3.00806379 18.4974675,4.90842863 17.1213203,6.28457578 C16.8464388,6.55945726 16.5506416,6.80533717 16.2381323,7.02117219 C16.4600358,7.03362373 16.6833071,7.06081678 16.9064727,7.10062408 C17.1171317,7.13820049 17.3256573,7.18688479 17.5311772,7.24647326 C20.6583536,8.15316774 22.5105278,11.3636301 21.7352097,14.5371024 L21.7352097,14.5371024 L21.6727211,14.7702695 L20.0275739,20.4443591 C19.3065693,22.9310937 16.8075867,24.452795 14.250082,23.9557707 L14.250082,23.9557707 L14.0235205,23.9054127 L13.0538092,23.6652869 C12.762295,23.5931004 12.4799912,23.49563 12.2094746,23.3744744 L12.2094746,23.3744744 L12,23.273 L11.7910554,23.3742576 C11.6106457,23.4550751 11.4249375,23.5253774 11.2347438,23.5846691 L11.2347438,23.5846691 L10.9461908,23.6652869 L9.97647953,23.9054127 C7.37050256,24.5507204 4.72003475,23.0228508 3.97242609,20.4443591 L3.97242609,20.4443591 L2.32727886,14.7702695 C1.39329568,11.5489748 3.24752809,8.18045644 6.46882285,7.24647326 C6.67434266,7.18688479 6.88286832,7.13820049 7.09352727,7.10062408 C8.3813163,6.87091399 9.67197019,7.06142841 10.8014624,7.60043483 C10.1961934,5.52023081 8.27563118,4 6,4 C5.44771525,4 5,3.55228475 5,3 C5,2.44771525 5.44771525,2 6,2 C8.14965804,2 10.0729978,2.96898377 11.3570654,4.49399746 C11.6611827,3.58670257 12.1748389,2.74577587 12.8786796,2.04193509 Z M16.5552652,9.06954593 C15.1553634,8.81983766 13.7515842,9.30622238 12.8192294,10.3146977 L12.8192294,10.3146977 L12.7508228,10.3922448 C12.3534425,10.8427226 11.6513883,10.8436776 11.252784,10.3942824 C10.3065162,9.32743944 8.87403323,8.81459403 7.44473481,9.06954593 C7.30345274,9.0947472 7.16360139,9.12739817 7.02576597,9.16736221 C4.86534888,9.7937542 3.62177583,12.0529093 4.24816781,14.2133264 L4.24816781,14.2133264 L5.89331504,19.8874159 C6.34188024,21.434511 7.93216092,22.3512328 9.49574711,21.9640481 L9.49574711,21.9640481 L10.4654583,21.7239223 C10.8163954,21.6370212 11.1437162,21.4898621 11.4354571,21.2903624 C11.7756387,21.0577378 12.2236899,21.0576278 12.5639857,21.2900852 C12.8567022,21.4900411 13.183797,21.6370688 13.5345417,21.7239223 L13.5345417,21.7239223 L14.4795032,21.9582523 L14.6563465,21.9976341 C16.1744515,22.2924653 17.6741382,21.3792635 18.106685,19.8874159 L18.106685,19.8874159 L19.7461202,14.2338413 L19.797608,14.0418817 C20.3136934,11.9288407 19.0713316,9.77539531 16.974234,9.16736221 C16.8363986,9.12739817 16.6965473,9.0947472 16.5552652,9.06954593 Z M16.9567451,2.20509613 L16.7574555,2.22801253 C15.8381468,2.35541472 14.9728827,2.77615917 14.2928932,3.45614865 C13.5857614,4.16328041 13.1596546,5.07044652 13.0515627,6.02822086 L13.0515627,6.02822086 L13.0436161,6.11963927 L13.1354783,6.11204888 C14.0135017,6.01247637 14.8487324,5.6460571 15.5263084,5.04121046 L15.5263084,5.04121046 L15.7071068,4.87036222 C16.4139746,4.16349436 16.8401689,3.25657744 16.9487934,2.29873376 L16.9487934,2.29873376 L16.9567451,2.20509613 Z" id="Combined-Shape" fill="#303133"></path>
                    </g>
                </g>
            </g>
        </g>
    </g>
</svg>