<?xml version="1.0" encoding="UTF-8"?>
<svg width="24px" height="24px" viewBox="0 0 24 24" version="1.1" xmlns="http://www.w3.org/2000/svg" xmlns:xlink="http://www.w3.org/1999/xlink">
    <!-- Generator: sketchtool 60.1 (101010) - https://sketch.com -->
    <title>EB02E08F-7E38-4FEB-9591-154BA8870C07</title>
    <desc>Created with sketchtool.</desc>
    <g id="Homepage" stroke="none" stroke-width="1" fill="none" fill-rule="evenodd">
        <g id="Category-Icons" transform="translate(-322.000000, -83.000000)">
            <g id="Group-6-Copy-4" transform="translate(304.000000, 65.000000)">
                <g id="Group-5">
                    <g id="Gift" transform="translate(18.000000, 18.000000)">
                        <rect id="24pt-Bounding-Box" x="0" y="0" width="24" height="24"></rect>
                        <path d="M15,0 C17.209139,0 19,1.790861 19,4 C19,4.7290322 18.8049665,5.41251188 18.4642293,6.00110922 L23,6 C23.5522847,6 24,6.44771525 24,7 L24,23 C24,23.5522847 23.5522847,24 23,24 L23,24 L1,24 C0.44771525,24 0,23.5522847 0,23 L0,23 L0,7 C0,6.44771525 0.44771525,6 1,6 L5.53577067,6.00110922 C5.1950335,5.41251188 5,4.7290322 5,4 C5,1.790861 6.790861,0 9,0 C10.1952121,0 11.2679883,0.524210566 12.0009561,1.35525927 C12.7320117,0.524210566 13.8047879,0 15,0 Z M11,12 L2,12 L2,22 L11,22 L11,12 Z M22,12 L13,12 L13,22 L22,22 L22,12 Z M11,8 L2,8 L2,10 L11,10 L11,8 Z M22,8 L13,8 L13,10 L22,10 L22,8 Z M9,2 C7.8954305,2 7,2.8954305 7,4 C7,5.1045695 7.8954305,6 9,6 L9,6 L11,6 L11,4 L10.9939555,3.84334953 C10.9178648,2.86122651 10.1323792,2.07801742 9.14926234,2.00548574 L9.14926234,2.00548574 Z M15,2 L14.8507377,2.00548574 C13.8158778,2.08183488 13,2.9456382 13,4 L13,6 L15,6 C16.1045695,6 17,5.1045695 17,4 C17,2.8954305 16.1045695,2 15,2 Z" id="Combined-Shape" fill="#303133"></path>
                    </g>
                </g>
            </g>
        </g>
    </g>
</svg>