<?xml version="1.0" encoding="UTF-8"?>
<svg width="22px" height="22px" viewBox="0 0 22 22" version="1.1" xmlns="http://www.w3.org/2000/svg" xmlns:xlink="http://www.w3.org/1999/xlink">
    <!-- Generator: sketchtool 52.5 (67469) - http://www.bohemiancoding.com/sketch -->
    <title>802C6710-2C09-43F3-BA73-1C89C7D82FF2</title>
    <desc>Created with sketchtool.</desc>
    <g id="🎨-Style-Guide" stroke="none" stroke-width="1" fill="none" fill-rule="evenodd">
        <g id="Icons-(Light)" transform="translate(-635.000000, -681.000000)">
            <g id="Standard" transform="translate(32.000000, 569.000000)">
                <g id="Standard-Icons" transform="translate(0.000000, 63.000000)">
                    <g id="Icon/Grid-Menu" transform="translate(602.000000, 48.000000)">
                        <rect id="24pt-Bounding-Box" x="0" y="0" width="24" height="24"></rect>
                        <path d="M3,3 L3,8.54545455 L8.54545455,8.54545455 L8.54545455,3 L3,3 Z M3,1 L8.54545455,1 C9.65002405,1 10.5454545,1.8954305 10.5454545,3 L10.5454545,8.54545455 C10.5454545,9.65002405 9.65002405,10.5454545 8.54545455,10.5454545 L3,10.5454545 C1.8954305,10.5454545 1,9.65002405 1,8.54545455 L1,3 C1,1.8954305 1.8954305,1 3,1 Z M15.4545455,3 L15.4545455,8.54545455 L21,8.54545455 L21,3 L15.4545455,3 Z M15.4545455,1 L21,1 C22.1045695,1 23,1.8954305 23,3 L23,8.54545455 C23,9.65002405 22.1045695,10.5454545 21,10.5454545 L15.4545455,10.5454545 C14.349976,10.5454545 13.4545455,9.65002405 13.4545455,8.54545455 L13.4545455,3 C13.4545455,1.8954305 14.349976,1 15.4545455,1 Z M3,15.4545455 L3,21 L8.54545455,21 L8.54545455,15.4545455 L3,15.4545455 Z M3,13.4545455 L8.54545455,13.4545455 C9.65002405,13.4545455 10.5454545,14.349976 10.5454545,15.4545455 L10.5454545,21 C10.5454545,22.1045695 9.65002405,23 8.54545455,23 L3,23 C1.8954305,23 1,22.1045695 1,21 L1,15.4545455 C1,14.349976 1.8954305,13.4545455 3,13.4545455 Z M15.4545455,15.4545455 L15.4545455,21 L21,21 L21,15.4545455 L15.4545455,15.4545455 Z M15.4545455,13.4545455 L21,13.4545455 C22.1045695,13.4545455 23,14.349976 23,15.4545455 L23,21 C23,22.1045695 22.1045695,23 21,23 L15.4545455,23 C14.349976,23 13.4545455,22.1045695 13.4545455,21 L13.4545455,15.4545455 C13.4545455,14.349976 14.349976,13.4545455 15.4545455,13.4545455 Z" id="Combined-Shape" fill="#303133" fill-rule="evenodd"></path>
                    </g>
                </g>
            </g>
        </g>
    </g>
</svg>