<?xml version="1.0" encoding="UTF-8"?>
<svg width="26px" height="26px" viewBox="0 0 26 26" version="1.1" xmlns="http://www.w3.org/2000/svg" xmlns:xlink="http://www.w3.org/1999/xlink">
    <!-- Generator: sketchtool 60.1 (101010) - https://sketch.com -->
    <title>8BC9A4E5-CCF1-403B-A8D6-9362293FF150</title>
    <desc>Created with sketchtool.</desc>
    <g id="Homepage" stroke="none" stroke-width="1" fill="none" fill-rule="evenodd">
        <g id="Category-Icons" transform="translate(-531.000000, -82.000000)">
            <g id="Group-6-Copy-8" transform="translate(514.000000, 65.000000)">
                <g id="Group-5">
                    <g id="Health" transform="translate(17.000000, 17.000000)">
                        <rect id="24pt-Bounding-Box" x="1" y="1" width="24" height="24"></rect>
                        <path d="M22.0978688,15.0376656 L22.1920754,15.1208618 L23.6066017,16.5355339 C25.5592232,18.4881554 25.5592232,21.6539803 23.6066017,23.6066017 C21.7831006,25.4301028 18.8875786,25.5576144 16.8980319,23.9337773 L16.7142265,23.77641 L16.5355703,23.6066381 L15.1208618,22.1920754 C14.7603462,21.8315969 14.7326003,21.2643423 15.0376341,20.8720363 L15.1208254,20.7778254 L20.7778254,15.1208254 C21.1383225,14.7603283 21.7055785,14.7326117 22.0978688,15.0376656 Z M23.3994949,2.80761184 C25.4877151,4.89583202 25.5457212,8.24546548 23.5735133,10.4037642 L23.3994949,10.5857864 L10.6715729,23.3137085 C8.52368927,25.4615921 5.04128189,25.4615921 2.89339828,23.3137085 C0.805178111,21.2254883 0.747171995,17.8758549 2.71937993,15.7175562 L2.89339828,15.5355339 L15.6213203,2.80761184 C17.7692039,0.65972824 21.2516113,0.65972824 23.3994949,2.80761184 Z M21.485,17.242 L17.242,21.485 L17.9304279,22.1735826 L18.069909,22.3062424 C19.251529,23.3666292 21.0642616,23.3205147 22.1923882,22.1923882 C23.3170981,21.0676782 23.3620865,19.2721153 22.3273211,18.0937048 L22.1923517,17.949711 L21.485,17.242 Z M6.98948558,14.2676991 L4.30761184,16.9497475 C2.94077682,18.3165825 2.94077682,20.5326599 4.30761184,21.8994949 C5.62563133,23.2175144 7.73331626,23.2645865 9.10774042,22.0407113 L9.25735931,21.8994949 L11.9384856,19.2166991 L6.98948558,14.2676991 Z M12.6464856,8.61069914 L8.40348558,12.8536991 L13.352,17.802 L17.595,13.559 L12.6464856,8.61069914 Z M17.1851528,4.08060903 L17.0355339,4.22182541 L14.0614856,7.19669914 L19.0104856,12.1456991 L21.9852814,9.17157288 C23.3033009,7.85355339 23.350373,5.74586846 22.1264977,4.3714443 L21.9852814,4.22182541 C20.6672619,2.90380592 18.559577,2.8567338 17.1851528,4.08060903 Z M9.08383026,2.04949727 L9.28577353,2.22359002 L9.46442966,2.39336185 L10.8790025,3.80778898 C11.2395182,4.1682675 11.2672641,4.73552208 10.9622303,5.12782812 L10.879039,5.22203897 L5.22203897,10.879039 C4.86154188,11.2395361 4.29428587,11.2672527 3.90199554,10.9621987 L3.80778898,10.8790025 L2.39339828,9.46446609 C0.569897167,7.64096498 0.442385574,4.74544301 2.06622269,2.75589627 L2.22359002,2.57209085 L2.39339828,2.39339828 C4.2168994,0.569897167 7.11242136,0.442385574 9.08383026,2.04949727 Z M3.96864958,3.65522946 L3.82641739,3.78829231 L3.6937576,3.92777338 C2.67755363,5.0601592 2.67756341,6.77216059 3.67226534,7.90579829 L3.80764827,8.05028896 L4.514,8.757 L8.757,4.514 L8.06957206,3.82641739 L7.921,3.685 L7.77919799,3.56696911 C6.64996016,2.6794026 5.03713621,2.72007063 3.96864958,3.65522946 Z" id="Combined-Shape" fill="#303133"></path>
                    </g>
                </g>
            </g>
        </g>
    </g>
</svg>