<?xml version="1.0" encoding="UTF-8"?>
<svg width="17px" height="24px" viewBox="0 0 17 24" version="1.1" xmlns="http://www.w3.org/2000/svg" xmlns:xlink="http://www.w3.org/1999/xlink">
    <!-- Generator: sketchtool 60.1 (101010) - https://sketch.com -->
    <title>6BA9342B-F5F7-4716-BA23-49C545FB3C05</title>
    <desc>Created with sketchtool.</desc>
    <g id="Homepage" stroke="none" stroke-width="1" fill="none" fill-rule="evenodd">
        <g id="Category-Icons" transform="translate(-256.000000, -83.000000)">
            <g id="Group-6-Copy-3" transform="translate(228.000000, 65.000000)">
                <g id="Group-5" transform="translate(6.000000, 0.000000)">
                    <g id="Electronics" transform="translate(18.000000, 18.000000)">
                        <rect id="24pt-Bounding-Box" x="0" y="0" width="24" height="24"></rect>
                        <path d="M17.054,0 C19.23,0 21,1.794 21,4 L21,4 L21,20 C21,22.206 19.23,24 17.054,24 L17.054,24 L7.947,24 C5.771,24 4,22.206 4,20 L4,20 L4,4 C4,1.794 5.771,0 7.947,0 L7.947,0 Z M19,18 L6,18 L6,20 C6,21.103 6.873,22 7.947,22 L7.947,22 L17.054,22 C18.127,22 19,21.103 19,20 L19,20 L19,18 Z M12.5003,19 C13.0533,19 13.5003,19.447 13.5003,20 C13.5003,20.553 13.0533,21 12.5003,21 C11.9473,21 11.5003,20.553 11.5003,20 C11.5003,19.447 11.9473,19 12.5003,19 Z M17.054,2 L7.947,2 C6.873,2 6,2.897 6,4 L6,4 L6,16 L19,16 L19,4 C19,2.897 18.127,2 17.054,2 L17.054,2 Z" id="Combined-Shape" fill="#303133"></path>
                    </g>
                </g>
            </g>
        </g>
    </g>
</svg>