<?xml version="1.0" encoding="UTF-8"?>
<svg width="24px" height="24px" viewBox="0 0 24 24" version="1.1" xmlns="http://www.w3.org/2000/svg" xmlns:xlink="http://www.w3.org/1999/xlink">
    <!-- Generator: sketchtool 60.1 (101010) - https://sketch.com -->
    <title>B64B5C55-551F-498C-A7D9-66BD79F05B96</title>
    <desc>Created with sketchtool.</desc>
    <g id="Homepage" stroke="none" stroke-width="1" fill="none" fill-rule="evenodd">
        <g id="Category-Icons" transform="translate(-182.000000, -83.000000)">
            <g id="Group-6-Copy-2" transform="translate(164.000000, 65.000000)">
                <g id="Group-5">
                    <g id="Jewelry" transform="translate(18.000000, 17.000000)">
                        <rect id="24pt-Bounding-Box" x="0" y="1" width="24" height="24"></rect>
                        <path d="M19.463112,0.999150981 L24,5.53603897 L24,10 L17.2460143,9.99876079 C18.3504945,11.5511199 19,13.4497099 19,15.5 C19,20.7467051 14.7467051,25 9.5,25 C4.25329488,25 0,20.7467051 0,15.5 C0,10.2532949 4.25329488,6 9.5,6 C11.5502901,6 13.4488801,6.64950547 15.0012392,7.75398568 L15,1.00024512 L19.463112,0.999150981 Z M9.5,8 C5.35786438,8 2,11.3578644 2,15.5 C2,19.6421356 5.35786438,23 9.5,23 C13.6421356,23 17,19.6421356 17,15.5 C17,11.3578644 13.6421356,8 9.5,8 Z M21.636,6.00015098 L18.305,7.99915098 L22,8 L22,6.365 L21.636,6.00015098 Z M19.727,4.09115098 L17.957,7.04215098 L20.907,5.27115098 L19.727,4.09115098 Z M18.634,2.999 L17,2.999 L17,6.69415098 L18.998,3.36215098 L18.634,2.999 Z" id="Combined-Shape" fill="#303133"></path>
                    </g>
                </g>
            </g>
        </g>
    </g>
</svg>