<?xml version="1.0" encoding="UTF-8"?>
<svg width="19px" height="24px" viewBox="0 0 19 24" version="1.1" xmlns="http://www.w3.org/2000/svg" xmlns:xlink="http://www.w3.org/1999/xlink">
    <!-- Generator: sketchtool 52.5 (67469) - http://www.bohemiancoding.com/sketch -->
    <title>60CAD8A3-567B-4225-A5AE-108BEBE484F1</title>
    <desc>Created with sketchtool.</desc>
    <g id="🎨-Style-Guide" stroke="none" stroke-width="1" fill="none" fill-rule="evenodd">
        <g id="Icons-(Light)" transform="translate(-635.000000, -728.000000)">
            <g id="Standard" transform="translate(32.000000, 569.000000)">
                <g id="Standard-Icons" transform="translate(0.000000, 63.000000)">
                    <g id="Icon/Map-Marker" transform="translate(601.000000, 96.000000)">
                        <rect id="24pt-Bounding-Box" x="0" y="0" width="24" height="24"></rect>
                        <path d="M11.5,2.18007299 C7.42873732,2.18007299 4.11691725,5.59236115 4.11691725,9.78573214 C4.11691725,15.6060591 9.68151815,20.2289657 11.5,21.5859621 C13.3184818,20.2313653 18.884244,15.6120582 18.884244,9.78573214 C18.884244,5.59236115 15.5712627,2.18007299 11.5,2.18007299 Z M11.5,24 C11.3025914,24 11.106344,23.9424086 10.9321599,23.8296256 C10.5675345,23.5908614 2,17.8929161 2,9.78573214 C2,4.39014148 6.26170395,0 11.5,0 C16.7382961,0 21,4.39014148 21,9.78573214 C21,17.9217117 12.430143,23.593261 12.0655177,23.8308254 C11.8924948,23.9436085 11.6962474,24 11.5,24 Z M11.5,7.23249147 C10.2494556,7.23249147 9.23285248,8.24982935 9.23285248,9.50061433 C9.23285248,10.7513993 10.2494556,11.7675085 11.5,11.7675085 C12.7505444,11.7675085 13.7683723,10.7513993 13.7683723,9.50061433 C13.7683723,8.24982935 12.7505444,7.23249147 11.5,7.23249147 Z M11.5,14 C9.01850844,14 7,11.9812969 7,9.50061433 C7,7.01870307 9.01850844,5 11.5,5 C13.9814916,5 16,7.01870307 16,9.50061433 C16,11.9812969 13.9814916,14 11.5,14 Z" id="Combined-Shape" fill="#303133" fill-rule="evenodd"></path>
                    </g>
                </g>
            </g>
        </g>
    </g>
</svg>