<?xml version="1.0" encoding="UTF-8"?>
<svg width="22px" height="24px" viewBox="0 0 22 24" version="1.1" xmlns="http://www.w3.org/2000/svg" xmlns:xlink="http://www.w3.org/1999/xlink">
    <!-- Generator: sketchtool 58 (101010) - https://sketch.com -->
    <title>2BDDB78D-6FEB-46CD-9694-A7D8A07F8BF4</title>
    <desc>Created with sketchtool.</desc>
    <g id="🎨-Style-Guide" stroke="none" stroke-width="1" fill="none" fill-rule="evenodd">
        <g id="Icons-(Light)" transform="translate(-489.000000, -728.000000)">
            <g id="Standard" transform="translate(32.000000, 569.000000)">
                <g id="Standard-Icons" transform="translate(0.000000, 63.000000)">
                    <g id="Icon/Lock/Line" transform="translate(456.000000, 96.000000)">
                        <rect id="24pt-Bounding-Box" x="0" y="0" width="24" height="24"></rect>
                        <path d="M12,0 C15.5898509,0 18.5,2.91014913 18.5,6.5 L18.5,7 L23,7 L23,24 L1,24 L1,7 L5.5,7 L5.5,6.5 C5.5,2.91014913 8.41014913,0 12,0 Z M21,9 L3,9 L3,22 L21,22 L21,9 Z M12,12 C14.209139,12 16,13.790861 16,16 C16,18.209139 14.209139,20 12,20 C9.790861,20 8,18.209139 8,16 C8,13.790861 9.790861,12 12,12 Z M12,14 C10.8954305,14 10,14.8954305 10,16 C10,17.1045695 10.8954305,18 12,18 C13.1045695,18 14,17.1045695 14,16 C14,14.8954305 13.1045695,14 12,14 Z M12,2 C9.51471863,2 7.5,4.01471863 7.5,6.5 L7.5,7 L16.5,7 L16.5,6.5 C16.5,4.01471863 14.4852814,2 12,2 Z" id="Combined-Shape" fill="#303133"></path>
                    </g>
                </g>
            </g>
        </g>
    </g>
</svg>