<?xml version="1.0" encoding="UTF-8"?>
<svg width="116px" height="44px" viewBox="0 0 116 44" version="1.1" xmlns="http://www.w3.org/2000/svg" xmlns:xlink="http://www.w3.org/1999/xlink">
    <!-- Generator: sketchtool 52.5 (67469) - http://www.bohemiancoding.com/sketch -->
    <title>80995962-9AE7-4AE0-BF93-31556D9CBA4A</title>
    <desc>Created with sketchtool.</desc>
    <g id="Homepage" stroke="none" stroke-width="1" fill="none" fill-rule="evenodd">
        <g id="Homepage-Landing-Desktop" transform="translate(-749.000000, -15.000000)" fill="#4EA9DF">
            <g id="Hero-banner">
                <g id="Header">
                    <g id="Aha-Logo-Copy" transform="translate(749.000000, 15.000000)">
                        <g id="Group-2" transform="translate(0.000000, 0.785714)">
                            <path d="M102.341475,32.2846506 L102.002893,32.9877264 L101.827374,33.6394002 L101.541342,34.291074 L101.138297,34.9427478 L100.793758,35.633522 L100.390713,36.2069949 L100.104681,36.9629365 L99.7016362,37.5364094 L99.2400846,38.116399 L98.7785331,38.7680728 L98.1999685,39.2894118 L97.85543,39.8628848 L97.3938784,40.3842238 L96.7048015,40.8469122 L96.0547288,41.3096005 L95.4046562,41.596337 L94.8325923,41.9417241 L93.3894311,42.2349773 L92.1802961,42.2871112 L90.5096095,42.1763267 L89.3329781,41.57027 L88.929933,41.1075817 L88.3578691,40.6448933 L88.0718372,40.0714204 L87.5517791,39.5500813 L87.2592464,38.8527904 L87.0902276,38.2011166 L86.8627021,37.4516918 L86.6871825,36.0114928 L86.5116629,35.2034173 L86.5116629,33.7045676 L86.628676,32.948626 L86.4596571,32.0884166 L86.4596571,31.4106759 L86.628676,29.7945249 L86.628676,29.0776838 L86.8627021,28.2696083 L86.9147079,27.5788341 L86.9147079,26.6795243 L86.9732145,25.122024 L87.317753,23.505873 L87.4932726,22.0005066 L88.0718372,20.1562698 L88.7219098,19.3481943 L89.4694933,19.0614579 L90.1585703,19.1787592 L90.9126545,19.5241463 L91.257193,20.4430063 L91.3156995,21.5964689 L91.257193,22.3524104 L91.0231668,23.1018353 L90.6786284,25.3501098 L90.6786284,26.0995346 L90.3340899,27.6049011 L90.4511029,28.4129765 L90.2560812,29.0776838 L90.3145877,29.8857593 L90.0285557,31.3259583 L90.0870623,32.0818999 L89.9700492,32.8313247 L90.0870623,34.3301744 L90.0870623,35.1382499 L90.2560812,35.855091 L90.3145877,36.6045159 L90.6591262,37.4125914 L90.9451581,38.1098823 L91.5952307,38.5725707 L92.4598273,38.8006565 L93.6104558,38.8006565 L94.910601,38.1489827 L95.4241584,37.7970789 L96.4642746,36.7609176 L96.9258261,36.1092438 L97.4393835,35.5879048 L98.2454735,34.2845572 L98.6485186,33.593783 L99.2270832,32.2904355 L100.241154,30.4911093 L100.270003,30.3940648 L100.673048,29.7032906 L100.900574,29.0516168 L101.303619,28.302192 L101.537645,27.6505182 L101.992696,26.9532273 L102.285229,26.3015535 L102.74678,25.6107793 L103.260337,25.0307897 L103.604876,24.3400155 L104.124934,23.8186764 L104.527979,23.2386868 L105.106544,22.7825151 L105.626602,21.8571384 L106.081653,20.8144603 L106.198666,20.0650355 L106.432692,19.3156107 L106.887743,18.7421377 L107.407801,18.090464 L108.096878,17.6864262 L108.870464,17.5951919 L109.520537,17.5951919 L110.326627,17.7711438 L110.846685,18.2924828 L111.132717,18.8659558 L111.301736,19.5632467 L111.210725,20.3973891 L110.976699,21.146814 L110.573654,21.7984877 L110.170609,22.8541993 L110.287622,23.8903606 L110.866187,25.1937081 L111.672277,26.1125681 L112.32235,26.9792942 L113.011427,28.2826418 L113.472978,28.973416 L114.051543,30.2767635 L114.454588,30.9675377 L114.74062,31.6192115 L114.968145,32.3686364 L115.37119,33.0203101 L115.488203,33.7176011 L115.54671,34.9297143 L115.663723,36.0505932 L115.605216,36.7739511 L115.481703,37.7058446 L115.293181,38.5660539 L114.883636,39.3545792 L114.396081,40.1756882 L113.915028,40.925113 L113.12844,41.6224039 L112.380856,42.0264417 L111.919305,42.3718288 L110.768676,42.8345172 L108.92247,43.1799043 L107.888854,43.1799043 L106.848738,43.0691197 L106.081653,42.762833 L105.392576,42.4174459 L104.183441,41.4399353 L103.663382,40.7882615 L103.435857,40.1365877 L103.435857,39.484914 L103.494364,38.9700917 L103.721889,38.390102 L104.241947,37.7384283 L104.931024,37.3865244 L105.678608,37.7384283 L106.198666,38.390102 L106.601711,38.911441 L107.063262,39.3741294 L108.155384,39.6022152 L109.136994,39.6608659 L109.884577,39.3741294 L110.684167,38.8853741 L111.529261,38.1554995 L111.925805,37.2561897 L111.925805,36.5002481 L112.120827,35.6856559 L111.990813,34.6951117 L111.815293,33.9456869 L111.756786,33.1376114 L111.412248,32.4859376 L111.126216,31.7886467 L110.723171,31.0978725 L109.975587,29.7098074 L108.590933,27.6896187 L108.304901,27.0379449 L107.726336,26.28852 L107.440304,25.5977458 L106.978753,25.1871914 L106.32868,25.3044926 L105.678608,25.8258317 L104.319956,28.3934263 L104.08593,29.0451001 L103.741391,29.7945249 L103.396853,30.4918159 L102.993808,31.1434897 L102.766282,31.7234793 L102.341475,32.2846506 Z M80.9535421,30.3614811 L81.1160603,31.0783223 L80.8885349,32.0949334 L80.4984913,32.7466071 L80.2124593,33.3982809 L79.4778773,34.7537624 L79.0878337,35.4054361 L78.749796,36.0571099 L78.3467509,36.6175494 L78.0152139,37.2692231 L77.5601631,37.9208969 L77.111613,38.4357192 L76.7150687,38.9961586 L76.0974997,39.6478324 L75.6424489,40.0453534 L74.6283356,40.6970272 L73.1071657,41.4855525 L71.9760394,41.7136383 L70.9034196,41.7722889 L70.253347,41.6028537 L69.4082526,41.0945482 L68.615164,40.4428744 L68.2251204,39.8759182 L67.8805819,39.308962 L67.3735253,37.2170892 L66.9834817,36.8195682 L66.6389432,37.1063047 L66.2488997,37.6146102 L65.8523554,38.266284 L65.2867922,38.8332402 L64.8902479,39.4001964 L64.2401753,39.7977174 L63.1155497,40.7035439 L62.5434858,41.0424143 L61.3018471,41.6028537 L60.5152593,41.7722889 L58.4285262,42.0003747 L57.5834318,41.8830735 L56.9333592,41.7722889 L56.1987771,41.5442031 L55.5487045,41.2053327 L54.8986319,40.8664624 L54.3330687,40.4754581 L53.8260121,39.9671526 L52.8183996,38.7224557 L52.5323676,38.0707819 L52.1943299,37.4191081 L52.1358233,36.6240661 L51.8692935,35.9723923 L51.6287667,36.2721623 L51.2907289,36.923836 L50.7836723,37.5755098 L50.3351222,38.2271836 L49.6850496,39.0743595 L48.8659581,39.9476023 L48.2158855,40.4559079 L47.7608347,40.9055628 L47.110762,41.3617344 L46.5451989,41.6419542 L44.6859912,42.1502597 L43.5548649,42.2089103 L42.9047923,41.9808245 L42.2547196,41.87004 L41.5201376,41.5311696 L41.013081,41.0815147 L40.2784989,39.8889517 L39.8819546,39.2372779 L39.4919111,37.8231458 L39.4919111,37.0867545 L39.3358936,35.5683546 L39.4529067,34.8319632 L39.563419,34.1802894 L39.7324379,33.4438981 L39.8429503,32.7922243 L40.3565076,30.9284373 L41.0065802,29.5729559 L41.2341056,28.5563448 L41.5656427,27.7613028 L41.7346616,27.109629 L41.7931681,26.314587 L41.9036804,25.6629132 L41.9036804,24.1379966 L41.962187,23.4863228 L41.6241492,22.7564482 L41.1690984,22.3002765 L40.5190258,22.0200568 L39.3944002,22.0200568 L38.3152796,22.2416259 L37.7562172,22.587013 L37.1061446,22.8085821 L36.456072,23.1474525 L35.9490153,23.6622747 L35.3834522,24.053279 L33.9077873,25.7150471 L33.5632489,26.2754866 L33.1732053,26.8424428 L32.8351675,27.4941165 L31.9900731,28.7974641 L31.6455347,29.4491378 L31.42451,30.1008116 L31.1969846,31.1174227 L31.0279657,32.2513351 L31.138478,32.9812097 L30.9694591,34.3953418 L31.0279657,35.1317332 L31.138478,36.6957502 L31.138478,38.9049243 L31.0279657,39.5565981 L31.0799715,40.7491611 L30.6314214,41.8179061 L29.9813488,42.0459919 L29.3312762,42.2154271 L28.479681,42.0459919 L27.9206186,41.2509499 L27.7515997,40.1235543 L27.7515997,38.6507715 L27.6345866,37.9143802 L27.5825808,37.2627064 L27.5825808,36.4741811 L27.6800917,35.2555512 L27.6085837,35.3663357 L27.270546,36.0180095 L26.8740017,36.5784489 L26.5359639,37.2301227 L26.0874138,37.8817965 L25.632363,38.3966188 L25.2423194,38.9570582 L24.5922468,39.608732 L24.1436967,40.006253 L23.1230827,40.6579268 L21.6019128,41.446452 L20.4707865,41.6745378 L19.4046674,41.7331885 L18.7545948,41.5637533 L17.9095004,41.0554478 L17.1164118,40.403774 L16.7263683,39.8368178 L16.3883305,39.2698616 L15.8812739,37.1779888 L15.4847296,36.7804678 L15.1466918,37.0672043 L14.7501475,37.5755098 L14.3536032,38.2271836 L13.7880401,38.7941398 L13.3979965,39.3610959 L12.7479239,39.758617 L11.6232983,40.6644435 L11.0577351,41.0033139 L9.81609641,41.5637533 L9.02300783,41.7331885 L6.93627475,41.9612743 L6.09118035,41.843973 L5.44110775,41.7331885 L4.7065257,41.5051027 L4.05645309,41.1662323 L3.43888411,40.8273619 L2.87332094,40.4363577 L2.3662643,39.9280521 L1.35215103,38.6833552 L1.06611908,38.0316814 L0.728081323,37.3800077 L0.669574788,36.5849657 L0.390043566,35.9332919 L0.221024687,35.1969005 L0.0520058088,34.5452268 L0.0520058088,33.7045676 L0.110512344,32.9095256 L7.81597009e-13,32.1210003 L0.0520058088,31.4693265 L0.279531222,30.8176528 L0.338037757,30.0030606 L0.455050827,29.2666692 L0.624069706,28.6149954 L0.845094393,27.9633216 L0.936104558,27.1617629 L1.21563578,26.5100891 L2.34676212,24.5550678 L2.73680569,23.903394 L3.13334998,23.3364378 L3.64040662,22.6847641 L4.99255764,21.3814165 L6.57223409,20.3648054 L7.13779726,20.0845857 L7.87237931,19.8564999 L8.60696136,19.5762802 L9.3415434,19.4589789 L10.466169,19.406845 L11.4802823,19.4589789 L12.838934,19.6349308 L13.5670154,19.9151505 L14.217088,20.0845857 L14.95167,20.4234561 L15.6017426,20.4821067 L16.2518152,19.8304329 L16.7003653,19.2634768 L17.7729852,19.2113429 L18.845605,19.4915626 L19.1316369,20.2996381 L19.2161463,21.420517 L19.2746529,22.1569083 L19.2161463,22.8085821 L19.0471275,24.3400155 L18.9301144,25.1285407 L18.8196021,27.2790642 L18.5920766,28.8039808 L18.5400708,29.5990228 L18.5920766,30.2506966 L18.5920766,31.0392219 L18.4815643,32.0623497 L18.4815643,33.1310947 L18.5335701,33.9261367 L18.4815643,34.7146619 L18.559573,35.4445366 L18.6765861,36.1809279 L18.845605,36.800018 L19.0146238,37.59506 L19.580187,38.1620162 L20.5357937,38.390102 L21.549907,38.0772986 L22.0569637,37.7905622 L22.7915457,37.3995579 L23.6366401,36.2069949 L24.1501975,35.6986893 L24.5987476,35.0470156 L25.1058042,34.4800594 L25.3918361,33.8283856 L25.8988928,33.1767118 L26.178424,32.5250381 L26.5164618,31.8733643 L27.0105169,31.1630399 L27.4720685,30.4201318 L27.4720685,29.918343 L27.530575,29.2666692 L27.4655678,28.4194933 L27.3550554,27.6831019 L27.413562,26.8880599 L27.3550554,26.2363861 L27.413562,25.5065115 L27.4655678,24.7114695 L27.3550554,23.9229442 L27.5240743,23.1865529 L27.5825808,22.5348791 L27.5825808,21.8832053 L27.5370758,20.5472741 L27.6995939,18.9571901 L27.6995939,18.8398888 L27.8621121,17.8754116 L27.8036055,17.2237378 L27.9206186,16.4352126 L27.6930932,15.5880367 L27.2965489,15.0210805 L26.2824356,14.6235595 L25.632363,13.8350342 L25.8273848,13.020442 L26.2174284,12.4600026 L27.2380424,12.1211322 L28.2521556,11.8930464 L28.7007057,11.2413726 L29.0387435,10.5896988 L29.09725,9.85330746 L29.3247754,9.20163369 L29.714819,8.41310842 L29.8903386,7.76143465 L30.1698698,7.10976087 L30.5079076,6.4580871 L31.8600586,3.92959286 L32.2566029,3.36915341 L32.9066755,2.79568049 L33.9207888,1.78558614 L34.4278454,1.3815484 L35.077918,0.990544136 L35.8645059,0.593023134 L37.1061446,0.221569083 L37.7562172,0.0521339019 L38.4062898,-1.77635684e-14 L39.5894219,-1.77635684e-14 L40.7725541,0.0521339019 L41.2861115,0.280219723 L42.6902683,0.931893497 L43.1453191,1.3294145 L43.6523758,1.89637068 L43.9514092,2.41119296 L44.6014818,3.76667441 L44.6599883,4.41834819 L44.8290072,5.15473955 L44.7184948,5.80641333 L44.7184948,6.53628795 L44.6014818,7.33132996 L44.4324629,7.98300373 L44.1529317,8.63467751 L43.8148939,9.28635128 L42.5147487,11.1501383 L41.8971797,11.9973142 L40.9935788,12.7337055 L40.3435062,13.1312265 L39.6934336,13.4700969 L39.043361,13.9197518 L37.8017223,14.5714256 L35.6044768,15.1905157 L34.8113883,15.3599509 L34.0833069,15.3599509 L33.4332343,15.4186015 L32.7116537,15.529386 L31.8015521,15.8682564 L31.2944954,16.6632984 L31.2944954,18.0448468 L31.1319773,18.9637068 L31.2229875,20.3908724 L31.0279657,21.9092723 L31.138478,22.6391469 L30.9694591,24.053279 L30.8849497,24.8939382 L31.1124751,25.2914592 L31.3985071,24.9525888 L31.7365448,24.300915 L32.6921516,23.2256533 L33.1472024,22.5739795 L33.654259,22.1178079 L34.1028091,21.6095023 L34.7528817,21.1598474 L35.2014318,20.5928913 L35.766995,20.1432364 L36.7551054,19.5762802 L37.7107121,19.1787592 L38.3282811,18.8398888 L40.4735207,18.4423678 L41.2081027,18.3837172 L41.9426848,18.5010184 L42.5927574,18.611803 L43.3273395,18.8398888 L43.8343961,19.1787592 L44.2244397,19.5762802 L44.6209839,20.2279539 L45.0175282,20.7949101 L45.4660783,22.0982577 L45.5830914,23.0171177 L45.6350972,23.6687915 L45.5245849,25.1937081 L45.4140725,25.9300995 L45.2450537,26.6664908 L45.1865471,27.4615328 L45.0760348,28.1132066 L44.8485094,28.7648804 L44.6794905,29.5534057 L44.3414527,30.289797 L44.2244397,30.9414708 L43.7758896,32.0167325 L43.4378518,33.0919942 L43.3273395,33.743668 L42.9893017,34.3953418 L42.9893017,35.0470156 L42.9307952,35.7834069 L42.7617763,36.4350807 L42.9047923,37.1519219 L43.1843235,37.9404471 L43.5808678,38.5074033 L44.4844687,38.7354891 L45.4400754,38.5660539 L46.090148,38.2793175 L47.611318,36.8651854 L48.0598681,36.2135116 L48.5734254,35.5618378 L49.080482,35.0013984 L49.8930728,33.6850174 L50.3416229,33.0333436 L50.5106418,32.3816698 L51.2452238,31.0783223 L51.7847841,30.289797 L51.7847841,30.0030606 L51.8952965,29.2666692 L52.0643153,28.6149954 L52.28534,27.9633216 L52.3763502,27.1617629 L52.6623821,26.5100891 L53.7870077,24.5550678 L54.183552,23.903394 L54.5800963,23.3364378 L55.087153,22.6847641 L56.439304,21.3814165 L58.0189804,20.3648054 L58.5845436,20.0845857 L59.3191257,19.8564999 L60.047207,19.5762802 L60.781789,19.4589789 L61.9129154,19.406845 L62.9270286,19.4589789 L64.2791797,19.6349308 L65.0137617,19.9151505 L65.6638343,20.0845857 L66.3919157,20.4234561 L67.0419883,20.4821067 L67.6920609,19.8304329 L68.1471117,19.2634768 L69.2197315,19.2113429 L70.2923513,19.4915626 L70.5978854,20.325705 L70.656392,21.39445 L70.7083978,22.1308414 L70.656392,22.7825151 L70.4873731,24.3139485 L70.3443571,25.1285407 L70.2338448,27.2790642 L70.0063194,28.8039808 L69.9478128,29.5990228 L70.0063194,30.2506966 L70.0063194,31.0392219 L69.895807,32.0623497 L69.895807,33.1245779 L70.0063194,33.9196199 L69.9478128,34.7081452 L70.0063194,35.4445366 L70.1168317,36.1809279 L70.2923513,36.800018 L70.4613702,37.59506 L71.0204326,38.1620162 L71.9825401,38.390102 L72.9966534,38.0772986 L73.50371,37.7905622 L74.2382921,37.3995579 L75.0833864,36.2069949 L75.5904431,35.6986893 L76.0454939,35.0470156 L76.5525505,34.4800594 L76.8320818,33.8283856 L77.3391384,33.1767118 L77.6251704,32.5250381 L77.9632081,31.8733643 L78.4702647,31.1565231 L79.0358279,30.2506966 L79.6533969,29.6837404 L80.3879789,29.9118262 L80.9535421,30.3614811 Z M32.6531472,10.8112679 L32.4971298,11.5737262 L32.6141428,12.3036009 L33.2642154,12.648988 L33.9142881,12.5903373 L35.3834522,12.251467 L36.6835974,11.8539459 L37.4246802,11.5737262 L37.9837426,11.2348559 L38.6338152,10.7265503 L40.584033,8.62816077 L40.8375614,7.86570245 L41.0065802,7.18144499 L41.344618,5.77382964 L41.2861115,5.12215586 L40.9480737,4.47048209 L40.3825105,3.90352591 L39.8234481,3.453871 L38.7508283,3.28443582 L37.7887208,3.28443582 L37.1386482,3.51252164 L36.4885756,3.851392 L34.8828962,5.317658 L34.4278454,6.34078582 L33.7777728,7.29874627 L33.5567481,8.03513763 L33.2122096,8.68681141 L32.9326784,9.33848518 L32.8221661,10.0748765 L32.6531472,10.8112679 Z M15.4587267,25.6107793 L15.5887412,25.0373064 L15.3027092,24.0793459 L14.6526366,23.4276722 L14.002564,23.1995864 L12.5854057,22.8085821 L10.8952169,22.7499314 L9.82259714,22.9193666 L9.03600928,23.1995864 L8.30142723,23.5971074 L7.79437059,23.9946284 L7.22880742,24.5029339 L6.66324425,24.9591055 L6.27320069,25.6107793 L5.76614405,26.1190849 L4.80403659,28.2109577 L4.52450537,28.8626314 L4.06945454,30.2181129 L3.95894219,30.9545043 L3.67941097,32.3686364 L3.78992332,33.1050277 L3.84192912,34.5712937 L3.95894219,35.3076851 L4.17996688,35.9593588 L4.49200173,36.6696833 L4.83003949,37.321357 L5.35659831,37.8035956 L5.97416729,38.2532505 L6.53973046,38.539987 L7.33281904,38.6507715 L8.39893812,38.4813364 L9.41955212,38.2532505 L10.2646465,37.9143802 L10.9147191,37.5755098 L11.5647917,37.2366394 L12.0198426,36.6696833 L12.578905,36.1027271 L13.7685379,34.2389401 L14.0480691,33.5872663 L14.334101,32.8508749 L15.2312013,28.5302778 L15.2897078,27.8786041 L15.4587267,27.083562 L15.4587267,25.6107793 Z M66.905473,25.6107793 L66.9899825,24.9591055 L66.7104512,24.0011451 L66.0603786,23.3494713 L65.410306,23.1213855 L63.9996484,22.7303812 L62.3094597,22.6717306 L61.2368399,22.8411658 L60.450252,23.1213855 L59.7156699,23.5189065 L59.2086133,23.9164275 L58.6430501,24.424733 L58.077487,24.8809047 L57.6809427,25.5325785 L57.173886,26.040884 L56.2182793,28.1327568 L55.9322474,28.7844306 L55.4836973,30.139912 L55.3666842,30.8763034 L55.087153,32.2904355 L55.204166,33.0268269 L55.2561718,34.4930929 L55.3666842,35.2294842 L55.5942096,35.881158 L55.8737408,36.6175494 L56.2182793,37.2692231 L56.7773418,37.7775287 L57.4274144,38.2271836 L57.9929775,38.51392 L58.7795654,38.6247046 L59.8521852,38.4552694 L60.8662985,38.2271836 L61.7113929,37.8883132 L62.3614655,37.5494429 L63.0115381,37.2105725 L63.4665889,36.6436163 L64.0256514,36.0766601 L65.2087835,34.2128731 L65.4948154,33.5611994 L65.7743467,32.824808 L66.6779476,28.5302778 L66.7364541,27.8786041 L66.905473,27.083562 L66.905473,25.6107793 Z M81.4280951,41.8113893 L80.979545,41.446452 L80.6935131,41.074998 L80.6090036,40.2929894 L80.7715218,39.5565981 L81.0575537,39.1069432 L81.3500864,38.8202067 L81.6751227,38.5334703 L82.4942142,38.4487527 L83.2157948,38.5530205 L83.6643449,38.8006565 L84.0348863,39.087393 L84.3209182,39.5370479 L84.444432,40.3125397 L84.3209182,41.0945482 L84.0738906,41.5051027 L83.7033493,41.8309396 L83.2938035,42.1632932 L82.474712,42.2023936 L81.8246394,42.1632932 L81.4280951,41.8113893 Z M88.526888,15.7705053 L88.1823495,15.2491663 L88.0718372,14.0370531 L88.2993626,13.0008918 L88.7024076,12.4209021 L89.2744715,11.8995631 L90.3145877,11.7301279 L91.4652162,11.8995631 L92.1152888,12.4209021 L92.6288462,13.0008918 L92.8043658,14.1543544 L92.5703397,15.2491663 L92.1152888,15.9008401 L91.3612046,16.3048778 L90.3860957,16.5329636 L89.287473,16.3048778 L88.526888,15.7705053 Z" id="Combined-Shape"></path>
                        </g>
                    </g>
                </g>
            </g>
        </g>
    </g>
</svg>