<?xml version="1.0" encoding="UTF-8"?>
<svg width="24px" height="20px" viewBox="0 0 24 20" version="1.1" xmlns="http://www.w3.org/2000/svg" xmlns:xlink="http://www.w3.org/1999/xlink">
    <!-- Generator: sketchtool 58 (101010) - https://sketch.com -->
    <title>F7BF3324-2252-4475-85EC-20D898BF69BB</title>
    <desc>Created with sketchtool.</desc>
    <g id="🎨-Style-Guide" stroke="none" stroke-width="1" fill="none" fill-rule="evenodd">
        <g id="Icons-(Light)" transform="translate(-564.000000, -730.000000)">
            <g id="Standard" transform="translate(32.000000, 569.000000)">
                <g id="Standard-Icons" transform="translate(0.000000, 63.000000)">
                    <g id="Icon/Mail/Line" transform="translate(532.000000, 96.000000)">
                        <rect id="24pt-Bounding-Box" x="0" y="0" width="24" height="24"></rect>
                        <path d="M21,2 C22.6568542,2 24,3.34314575 24,5 L24,19 C24,20.6568542 22.6568542,22 21,22 L3,22 C1.34314575,22 0,20.6568542 0,19 L0,5 C0,3.34314575 1.34314575,2 3,2 L21,2 Z M2,10.426 L2,19 C2,19.5522847 2.44771525,20 3,20 L21,20 C21.5522847,20 22,19.5522847 22,19 L22,10.429 L13.7552287,13.4404062 C12.7368327,13.8122837 11.6275964,13.8422712 10.5943788,13.5301451 L10.3377547,13.444986 L2,10.426 Z M21,4 L3,4 C2.44771525,4 2,4.44771525 2,5 L2,8.298 L11.0187306,11.5644883 C11.607711,11.777773 12.2467229,11.8007027 12.846368,11.633397 L13.069215,11.5617404 L22,8.3 L22,5 C22,4.44771525 21.5522847,4 21,4 Z" id="Combined-Shape" fill="#303133"></path>
                    </g>
                </g>
            </g>
        </g>
    </g>
</svg>