<?xml version="1.0" encoding="UTF-8"?>
<svg width="40px" height="44px" viewBox="0 0 40 44" version="1.1" xmlns="http://www.w3.org/2000/svg" xmlns:xlink="http://www.w3.org/1999/xlink">
    <!-- Generator: sketchtool 55.2 (78181) - https://sketchapp.com -->
    <title>C78E902F-BD8B-4A65-AB02-19EE2F2451D1</title>
    <desc>Created with sketchtool.</desc>
    <defs>
        <path d="M20.5252,24.0731 C19.6932,24.0741 18.9432,23.5841 18.6232,22.8311 C18.3802,22.2641 17.7152,21.9981 17.1372,22.2371 C16.5592,22.4751 16.2882,23.1281 16.5312,23.6951 C17.2042,25.2741 18.7802,26.3021 20.5252,26.2991065 C22.9942,26.2991065 24.8552,24.5851 24.8552,22.2921 C24.8552,21.1621 24.3282,19.1451 20.8202,18.3441 L20.7842,18.3441 C18.4692,17.8281 18.4692,16.8711 18.4692,16.5641 C18.4692,15.3571 19.5352,14.7831 20.5302,14.7831 C21.3602,14.7811 22.1102,15.2691 22.4312,16.0211 C22.6562,16.5941 23.3122,16.8811 23.8972,16.6611 C24.4822,16.4411 24.7742,15.7981 24.5502,15.2241 C24.5422,15.2031 24.5332,15.1821 24.5232,15.1621 C24.0082,13.9561 22.9522,13.0521 21.6642,12.7131 L21.6642,11.9301 C21.6642,11.3151 21.1562,10.8171 20.5302,10.8171 C19.9032,10.8171 19.3952,11.3151 19.3952,11.9301 L19.3952,12.7271 C17.5402,13.1101 16.2132,14.7181 16.2181859,16.5771 C16.2181859,17.7081 16.7442,19.7241 20.2532,20.5251 L20.2892,20.5251 C22.6042,21.0461 22.6042,21.9991 22.6042,22.3061 C22.5762,23.5301 21.5102,24.0781 20.5162,24.0781 L20.5252,24.0731 Z M35.4122,12.9451 C35.1322,12.2461 34.5712,11.6911 33.8602,11.4131 L30.9412,10.2831 L30.3782,7.2561 C30.1062,5.7851 28.6692,4.8101 27.1702,5.0771 C27.1042,5.0891 27.0392,5.1031 26.9742,5.1191 L23.9292,5.8721 L21.6602,3.7491 C20.5572,2.7161 18.8102,2.7571 17.7582,3.8381 C17.7132,3.8841 17.6712,3.9311 17.6292,3.9801 L15.6322,6.3521 L12.5232,5.9431 C11.0132,5.7431 9.6232,6.7831 9.4202,8.2641 C9.4112,8.3281 9.4052,8.3931 9.4012,8.4581 L9.2052,11.5291 L6.4372,12.9891 C5.0992,13.7061 4.6082,15.3501 5.3382,16.6621 C5.3642,16.7091 5.3922,16.7551 5.4202,16.8001 L7.1042,19.3991 L5.7432,22.1721 C5.0822,23.5201 5.6612,25.1371 7.0342,25.7841 C7.0952,25.8121 7.1562,25.8391 7.2182,25.8631 L10.7212,27.2201 C11.3042,27.4461 11.9642,27.1661 12.1942,26.5951 C12.4252,26.0231 12.1392,25.3761 11.5562,25.1501 L8.0532,23.7931 C7.8012,23.6951 7.6772,23.4171 7.7762,23.1691 C7.7802,23.1591 7.7842,23.1491 7.7892,23.1381 L9.4192,19.8091 C9.5882,19.4631 9.5642,19.0561 9.3552,18.7321 L7.3362,15.6161 C7.1902,15.3911 7.2582,15.0941 7.4872,14.9521 C7.4972,14.9461 7.5072,14.9401 7.5172,14.9351 L10.8352,13.1811 C11.1742,13.0021 11.3982,12.6671 11.4292,12.2901 L11.6662,8.6051 C11.6732,8.4711 11.7372,8.3471 11.8432,8.2621 C11.9472,8.1751 12.0842,8.1361 12.2192,8.1551 L15.9552,8.6491 C16.3432,8.7031 16.7312,8.5541 16.9802,8.2571 L19.3812,5.4091 C19.5542,5.2041 19.8632,5.1761 20.0712,5.3451 C20.0812,5.3531 20.0902,5.3611 20.0982,5.3691 L22.8212,7.9191 C23.1052,8.1851 23.5092,8.2881 23.8882,8.1911 L27.5192,7.2691 C27.7812,7.2031 28.0482,7.3591 28.1162,7.6161 C28.1182,7.6261 28.1212,7.6371 28.1232,7.6481 L28.8312,11.2761 C28.9012,11.6541 29.1652,11.9711 29.5302,12.1121 L33.0342,13.4701 C33.2822,13.5761 33.3952,13.8601 33.2872,14.1031 C33.2832,14.1121 33.2782,14.1201 33.2742,14.1291 L31.6452,17.4581 C31.4752,17.8041 31.4992,18.2111 31.7082,18.5351 L33.7282,21.6521 C33.8732,21.8761 33.8062,22.1731 33.5772,22.3151 C33.5672,22.3211 33.5572,22.3271 33.5462,22.3331 L30.2292,24.0861 C29.6682,24.3611 29.4412,25.0301 29.7212,25.5791 C30.0022,26.1291 30.6832,26.3521 31.2442,26.0771 C31.2642,26.0671 31.2842,26.0561 31.3042,26.0451 L34.6222,24.2911 C35.9622,23.5791 36.4602,21.9371 35.7342,20.6221 C35.7042,20.5681 35.6722,20.5151 35.6392,20.4631 L33.9552,17.8631 L35.3172,15.0901 C35.6492,14.4131 35.6802,13.6321 35.4032,12.9321 L35.4122,12.9451 Z M44.4892,27.6341 C44.5862,28.7341 44.1822,29.8181 43.3862,30.5991 L32.9472,40.8371 C31.4422,42.3011 29.4032,43.1181 27.2832,43.1071 L14.3932,43.1071 L11.1302,46.2981 C10.6862,46.7341 9.9672,46.7341 9.5232,46.2981 C9.0802,45.8631 9.0802,45.1581 9.5232,44.7231 L13.1092,41.2061 C13.3222,40.9971 13.6112,40.8811 13.9122,40.8811 L27.2832,40.8811 C28.8162,40.8871 30.2872,40.2911 31.3682,39.2251 L41.8072,28.9871 C42.3922,28.3761 42.3602,27.4151 41.7372,26.8421 C41.1412,26.2941 40.2152,26.2941 39.6192,26.8421 L31.3812,35.0051 L31.3542,35.0281 C30.6452,35.7171 29.6882,36.1051 28.6902,36.1091 L20.7252,36.1091 C20.0982,36.1091 19.5902,35.6111 19.5902,34.9971 C19.5902,34.3821 20.0982,33.8841 20.7252,33.8841 L28.6952,33.8841 C29.4132,33.8801 30.0342,33.3911 30.1922,32.7041 C30.3752,31.8931 29.8532,31.0901 29.0262,30.9101 C28.9172,30.8871 28.8062,30.8751 28.6952,30.8751 L14.9472,30.8751 C13.6752,30.8711 12.4542,31.3661 11.5562,32.2501 L9.5502,34.2131 C9.1422,34.6791 8.4262,34.7331 7.9502,34.3321 C7.4752,33.9321 7.4202,33.2291 7.8292,32.7631 C7.8672,32.7191 7.9082,32.6791 7.9532,32.6421 L9.9592,30.6791 C11.2802,29.3761 13.0782,28.6451 14.9512,28.6491 L28.6952,28.6491 C30.2342,28.6441 31.6222,29.5571 32.2032,30.9551 L37.9852,25.2841 C39.4762,23.8221 41.8932,23.8221 43.3832,25.2841 C44.0252,25.9141 44.4172,26.7471 44.4892,27.6341 L44.4892,27.6341 Z" id="path-1"></path>
    </defs>
    <g id="Homepage" stroke="none" stroke-width="1" fill="none" fill-rule="evenodd">
        <g id="Restaurants---Inner---Empty-Cart" transform="translate(-970.000000, -2464.000000)">
            <g id="Advantages-block" transform="translate(0.000000, 2450.000000)">
                <g id="Advantage-Copy" transform="translate(965.000000, 11.000000)">
                    <g id="Icon-/-Price">
                        <mask id="mask-2" fill="white">
                            <use xlink:href="#path-1"></use>
                        </mask>
                        <use id="Fill-1" fill="#303133" xlink:href="#path-1"></use>
                    </g>
                </g>
            </g>
        </g>
    </g>
</svg>