<?xml version="1.0" encoding="UTF-8"?>
<svg width="32px" height="44px" viewBox="0 0 32 44" version="1.1" xmlns="http://www.w3.org/2000/svg" xmlns:xlink="http://www.w3.org/1999/xlink">
    <!-- Generator: sketchtool 55.2 (78181) - https://sketchapp.com -->
    <title>F10D11A9-4EAA-4333-9001-3799C3C3E5E7</title>
    <desc>Created with sketchtool.</desc>
    <g id="Homepage" stroke="none" stroke-width="1" fill="none" fill-rule="evenodd">
        <g id="Restaurants---Inner---Empty-Cart" transform="translate(-1209.000000, -2465.000000)" fill="#303133">
            <g id="Advantages-block" transform="translate(0.000000, 2450.000000)">
                <g id="Advantage-Copy-2" transform="translate(1200.000000, 11.000000)">
                    <g id="Icon-/-Restaurant">
                        <path d="M35,4 C35.611,4 36.201,4.092 36.757,4.262 C39.213,5.012 41,7.291 41,9.989 L41,23.906 L41,44.902 C41,46.567 39.648,47.917 37.979,47.917 C36.311,47.917 34.958,46.567 34.958,44.902 L34.958,29.893 C31.664,29.87 29,27.2 29,23.906 L29,9.989 C29,6.681 31.686,4 35,4 Z M35,5.996 C32.794,5.996 31,7.787 31,9.989 L31,23.906 C31,26.092 32.782,27.882 34.972,27.897 C36.071,27.904 36.958,28.796 36.958,29.893 L36.958,44.902 C36.958,45.464 37.416,45.921 37.979,45.921 C38.542,45.921 39,45.464 39,44.902 L39,23.906 L39,9.989 C39,8.222 37.863,6.687 36.172,6.171 C35.792,6.055 35.397,5.996 35,5.996 Z M22,4 C22.552,4 23,4.447 23,4.998 L23,15.977 C23,18.746 21.382,21.132 19.042,22.263 L19.042,44.902 C19.042,46.621 17.6,48.004 15.858,47.913 C14.225,47.827 13,46.364 13,44.731 L13,22.283 C10.637,21.161 9,18.763 9,15.977 L9,4.998 C9,4.447 9.448,4 10,4 C10.552,4 11,4.447 11,4.998 L11,5.996 L11,6.626 L11,15.977 C11,17.892 12.128,19.664 13.872,20.486 C14.565,20.813 15,21.517 15,22.283 L15,44.902 C15,45.464 15.458,45.921 16.021,45.921 C16.584,45.921 17.042,45.464 17.042,44.902 L17.042,22.263 C17.042,21.473 17.508,20.756 18.236,20.436 C20.011,19.655 21,17.728 21,15.792 L21,6.626 L21,5.996 L21,4.998 C21,4.447 21.448,4 22,4 Z M14,16.9754 C13.448,16.9754 13,16.5284 13,15.9774 L13,4.9984 C13,4.4464 13.448,4.0004 14,4.0004 C14.552,4.0004 15,4.4464 15,4.9984 L15,15.9774 C15,16.5284 14.552,16.9754 14,16.9754 Z M18,16.9754 C17.448,16.9754 17,16.5284 17,15.9774 L17,4.9984 C17,4.4464 17.448,4.0004 18,4.0004 C18.552,4.0004 19,4.4464 19,4.9984 L19,15.9774 C19,16.5284 18.552,16.9754 18,16.9754 Z" id="Combined-Shape"></path>
                    </g>
                </g>
            </g>
        </g>
    </g>
</svg>