<?xml version="1.0" encoding="UTF-8"?>
<svg width="100px" height="100px" viewBox="0 0 100 100" version="1.1" xmlns="http://www.w3.org/2000/svg" xmlns:xlink="http://www.w3.org/1999/xlink">
    <!-- Generator: sketchtool 58 (101010) - https://sketch.com -->
    <title>047DC6DA-A075-4423-91AD-B790B8F2DD89</title>
    <desc>Created with sketchtool.</desc>
    <g id="Homepage" stroke="none" stroke-width="1" fill="none" fill-rule="evenodd">
        <g id="My-Pages---My-Orders---No-orders" transform="translate(-1404.000000, -167.000000)">
            <g id="Group" transform="translate(713.000000, 117.000000)">
                <g transform="translate(463.000000, 50.000000)" id="Icon/Food-Icon/Big/Shopping">
                    <g transform="translate(228.000000, 0.000000)">
                        <rect id="24pt-Bounding-Box" x="0" y="0" width="100" height="100"></rect>
                        <path d="M70.8240002,46.6785005 C71.0200002,46.5825005 71.2020002,46.4525005 71.3660002,46.2885005 C72.1460002,45.5005005 72.1460002,44.2225004 71.3660002,43.4345004 L69.4140001,41.4685004 L58.6359997,30.5905003 C57.8559997,29.8025003 56.5899996,29.8025003 55.8079996,30.5905003 C55.0279996,31.3785003 55.0279996,32.6565003 55.8079996,33.4445003 L63.7579999,41.4685004 L68.5360001,46.2885005 C69.0040001,46.7625005 69.6460001,46.9505005 70.2520001,46.8565005 C70.4500002,46.8265005 70.6420002,46.7665005 70.8240002,46.6785005 L70.8240002,46.6785005 Z M35.8279994,41.4685004 L43.7799997,33.4445003 C44.5599998,32.6565003 44.5599998,31.3785003 43.7799997,30.5905003 C42.9979997,29.8025003 41.7319997,29.8025003 40.9499996,30.5905003 L30.1719992,41.4685004 L28.2219992,43.4345005 C27.4419991,44.2225005 27.4419991,45.5005005 28.2219992,46.2885005 C29.0039992,47.0785005 30.2699992,47.0785005 31.0499993,46.2885005 L35.8279994,41.4685004 Z M62.102,45.5045013 L37.486,45.5045013 L33.88,49.1425015 C31.536,51.5085016 27.738,51.5085016 25.394,49.1425015 C24.384,48.1245015 23.81,46.8325014 23.67,45.5045013 L4,45.5045013 L4,53.5785017 L6,53.5785017 L94,53.5785017 L96,53.5785017 L96,45.5045013 L75.916,45.5045013 C75.778,46.8325014 75.202,48.1245015 74.194,49.1425015 C71.85,51.5085016 68.05,51.5085016 65.708,49.1425015 L62.102,45.5045013 Z M74.92,41.4685005 L98,41.4685005 C99.106,41.4685005 100,42.3705005 100,43.4845005 L100,55.5945008 C100,56.7105008 99.106,57.6145008 98,57.6145008 L95.736,57.6145008 L89.98,98.2685016 C89.84,99.2625016 88.996,100.000502 88,100.000502 L12,100.000502 C11.006,100.000502 10.162,99.2625016 10.022,98.2685016 L4.266,57.6145008 L2,57.6145008 C0.896,57.6145008 0,56.7105008 0,55.5945008 L0,43.4845005 C0,42.3705005 0.896,41.4685005 2,41.4685005 L24.666,41.4685005 C24.878,41.1545005 25.12,40.8565005 25.394,40.5805005 L38.122,27.7345002 C40.466,25.3705002 44.264,25.3705002 46.608,27.7345002 C48.95,30.1005002 48.95,33.9345003 46.608,36.2985004 L41.486,41.4685005 L58.102,41.4685005 L52.98,36.2985004 C50.636,33.9345003 50.636,30.1005002 52.98,27.7345002 C55.324,25.3705002 59.122,25.3705002 61.466,27.7345002 L74.194,40.5805005 C74.468,40.8565005 74.71,41.1545005 74.92,41.4685005 L74.92,41.4685005 Z M80.262,7.15449969 L76.586,3.44649985 C75.806,2.65849989 75.806,1.38049994 76.586,0.592499974 C77.368,-0.197499991 78.634,-0.197499991 79.414,0.592499974 L85.072,6.30049973 L90.728,0.592499974 C91.51,-0.197499991 92.776,-0.197499991 93.558,0.592499974 C94.338,1.38049994 94.338,2.65849989 93.558,3.44649985 L89.882,7.15449969 L98,7.15449969 C99.106,7.15449969 100,8.05849965 100,9.1724996 L100,17.2464993 C100,18.3604992 99.106,19.2644992 98,19.2644992 L98,29.3564987 C98,32.7004986 95.314,35.4124985 92,35.4124985 L76,35.4124985 C72.688,35.4124985 70,32.7004986 70,29.3564987 L70,19.2644992 C68.896,19.2644992 68,18.3604992 68,17.2464993 L68,9.1724996 C68,8.05849965 68.896,7.15449969 70,7.15449969 L80.262,7.15449969 Z M72,15.2285004 L96,15.2285004 L96,11.1905003 L72,11.1905003 L72,15.2285004 Z M74,19.2644997 L74,29.3564994 C74,30.4704993 74.896,31.3744993 76,31.3744993 L92,31.3744993 C93.106,31.3744993 94,30.4704993 94,29.3564994 L94,19.2644997 L74,19.2644997 Z M22.0399997,14.2245001 C23.8959997,11.4425002 27.3599996,10.0205003 30.7479996,10.9365003 C31.8159995,11.2245002 32.4479995,12.3325002 32.1619995,13.4085002 C31.8759995,14.4845001 30.7799996,15.1245001 29.7119996,14.8365001 C27.9719996,14.3645001 26.1939996,15.1285001 25.2859997,16.5945 L25.2659997,21.9424998 C25.2619997,22.4744998 25.0519997,22.9844998 24.6799997,23.3624998 L13.3659999,34.7784994 C12.5839999,35.5684993 11.3179999,35.5684993 10.536,34.7784994 L4.88000006,29.0704996 C4.10000008,28.2824996 4.10000008,27.0044997 4.88000006,26.2164997 L16.1939998,14.7985001 C16.5719998,14.4185001 17.0819998,14.2045001 17.6159998,14.2065001 L22.0399997,14.2245001 Z M21.1999997,18.2585 L18.4339997,18.2465 L9.12199974,27.6424999 L11.9499997,30.4984999 L21.2679997,21.0945 L21.2799997,18.3745 C21.2499997,18.3365 21.2239997,18.2985 21.1999997,18.2585 L21.1999997,18.2585 Z M8.30599976,57.6144981 L13.7359997,95.9644966 L86.2659992,95.9644966 L91.6959991,57.6144981 L8.30599976,57.6144981 Z M16.8900004,76.1524988 L15.1700004,64.0084991 C14.7940004,61.3444991 18.7540004,60.7724991 19.1300004,63.4364991 L20.8500005,75.5824988 L22.5700005,87.7284986 C22.9480005,90.3924985 18.9880004,90.9644985 18.6100004,88.3004985 L16.8900004,76.1524988 Z M26.8900004,76.1524988 L25.1700004,64.0084991 C24.7940004,61.3444991 28.7540004,60.7724991 29.1300004,63.4364991 L30.8500005,75.5824988 L32.5700005,87.7284986 C32.9480005,90.3924985 28.9880004,90.9644985 28.6100004,88.3004985 L26.8900004,76.1524988 L26.8900004,76.1524988 Z M36.8900004,76.1524988 L35.1700004,64.0084991 C34.7940004,61.3444991 38.7540004,60.7724991 39.1300004,63.4364991 L40.8500005,75.5824988 L42.5700005,87.7284986 C42.9480005,90.3924985 38.9880004,90.9644985 38.6100004,88.3004985 L36.8900004,76.1524988 L36.8900004,76.1524988 Z M62.8500005,76.1524988 L61.1300004,88.3004985 C60.7540004,90.9644985 56.7940004,90.3924985 57.1700004,87.7284986 L58.8900004,75.5824988 L60.6100004,63.4364991 C60.9880004,60.7724991 64.9480005,61.3444991 64.5700005,64.0084991 L62.8500005,76.1524988 L62.8500005,76.1524988 Z M72.8500005,76.1524988 L71.1300004,88.3004985 C70.7540004,90.9644985 66.7940004,90.3924985 67.1700004,87.7284986 L68.8900004,75.5824988 L70.6100004,63.4364991 C70.9880004,60.7724991 74.9480005,61.3444991 74.5700005,64.0084991 L72.8500005,76.1524988 Z M82.8500005,76.1524988 L81.1300004,88.3004985 C80.7540004,90.9644985 76.7940004,90.3924985 77.1700004,87.7284986 L78.8900004,75.5824988 L80.6100004,63.4364991 C80.9880004,60.7724991 84.9480005,61.3444991 84.5700005,64.0084991 L82.8500005,76.1524988 Z" id="Fill-1" fill="#8D8D8F"></path>
                    </g>
                </g>
            </g>
        </g>
    </g>
</svg>