<?xml version="1.0" encoding="UTF-8"?>
<svg width="28px" height="44px" viewBox="0 0 28 44" version="1.1" xmlns="http://www.w3.org/2000/svg" xmlns:xlink="http://www.w3.org/1999/xlink">
    <!-- Generator: sketchtool 55.2 (78181) - https://sketchapp.com -->
    <title>96F4107A-77C0-40DB-9233-F163A901E9C3</title>
    <desc>Created with sketchtool.</desc>
    <g id="Homepage" stroke="none" stroke-width="1" fill="none" fill-rule="evenodd">
        <g id="Restaurants---Inner---Empty-Cart" transform="translate(-1447.000000, -2464.000000)" fill="#303133">
            <g id="Advantages-block" transform="translate(0.000000, 2450.000000)">
                <g id="Advantage-Copy-3" transform="translate(1436.000000, 11.000000)">
                    <g id="Icon-/-SMS">
                        <path d="M25,41 C24.172,41 23.5,41.672 23.5,42.5 C23.5,43.329 24.172,44 25,44 C25.829,44 26.5,43.329 26.5,42.5 C26.5,41.672 25.829,41 25,41 L25,41 Z M13,40 L37,40 L37,41.5 C37,43.456 35.456,45 33.5,45 L16.5,45 C14.544,45 13,43.456 13,41.5 L13,40 Z M13,38 L37,38 L37,10 L13,10 L13,38 Z M16.5,5 L33.5,5 C35.286,5 36.732,6.287 36.969,8 L13.031,8 C13.268,6.287 14.714,5 16.5,5 L16.5,5 Z M16.5,3 C13.47,3 11,5.47 11,8.5 L11,41.5 C11,44.53 13.47,47 16.5,47 L33.5,47 C36.53,47 39,44.53 39,41.5 L39,8.5 C39,5.47 36.53,3 33.5,3 L16.5,3 Z" id="Page-1"></path>
                    </g>
                </g>
            </g>
        </g>
    </g>
</svg>