<?xml version="1.0" encoding="UTF-8"?>
<svg width="24px" height="24px" viewBox="0 0 24 24" version="1.1" xmlns="http://www.w3.org/2000/svg" xmlns:xlink="http://www.w3.org/1999/xlink">
    <!-- Generator: sketchtool 60.1 (101010) - https://sketch.com -->
    <title>13DD0A2D-DF6C-468B-9144-6EC41FFC793B</title>
    <desc>Created with sketchtool.</desc>
    <g id="Homepage" stroke="none" stroke-width="1" fill="none" fill-rule="evenodd">
        <g id="Category-Icons" transform="translate(-112.000000, -83.000000)">
            <g id="Group-6-Copy" transform="translate(88.000000, 65.000000)">
                <g id="Group-5" transform="translate(6.000000, 0.000000)">
                    <g id="Sport" transform="translate(12.000000, 14.000000)">
                        <rect id="24pt-Bounding-Box" x="6" y="4" width="24" height="24"></rect>
                        <g id="Group" transform="translate(16.696699, 17.303301) rotate(-45.000000) translate(-16.696699, -17.303301) translate(1.196699, 9.303301)" fill="#303133">
                            <path d="M15.1025697,6.71776517 L15.1083756,6.68006255 C15.1220512,6.59768805 15.1369854,6.51573883 15.1531578,6.4342353 C15.1575509,6.414584 15.1615417,6.39490599 15.1656058,6.37524881 C15.9158704,2.73599548 19.1384222,0 23,0 C25.2888032,0 27.3531118,0.961175489 28.8113025,2.50190321 C28.8132785,2.50401934 28.8158183,2.50668092 28.8183469,2.50935964 L28.8451335,2.53786946 C28.8964752,2.59278805 28.9470519,2.64843077 28.9968467,2.70478063 L28.8183469,2.50935964 C28.8930982,2.58854744 28.9661133,2.66910008 29.037363,2.75096306 C29.1652112,2.8979172 29.287663,3.04939975 29.4045561,3.20529016 C29.4201117,3.22588047 29.4354904,3.24659246 29.450765,3.26737291 C29.5636834,3.42119324 29.6713023,3.57912213 29.7732813,3.74096179 C29.7803626,3.75198228 29.7872937,3.76304306 29.7941971,3.77411996 C29.8354681,3.84054313 29.8760853,3.90788874 29.9157288,3.97587183 C29.935115,4.00894121 29.9540961,4.04204561 29.9728364,4.07528063 C30.0616995,4.2329667 30.1455589,4.39418333 30.2239775,4.55849508 C30.2314442,4.57422295 30.2391887,4.59060043 30.2468774,4.60700451 C30.2806568,4.67892562 30.3132322,4.7511681 30.3447568,4.8239715 C30.3549505,4.84780053 30.3651177,4.87161628 30.3751693,4.89548322 C30.4493204,5.07107197 30.5173905,5.25028271 30.5790783,5.4324371 C30.5880813,5.45984791 30.5972877,5.4875469 30.6063433,5.51530243 C30.7300433,5.89337287 30.8260289,6.2836992 30.8922871,6.68406029 C30.8944889,6.69897637 30.8968276,6.71334035 30.8991277,6.72771435 C30.9305304,6.92249298 30.9546982,7.12027018 30.971518,7.32013855 C30.9729179,7.33804508 30.974377,7.35605203 30.9757761,7.37407122 C30.9918607,7.58065898 31,7.78937897 31,8 C31,8.20415609 30.9923527,8.40652604 30.9773288,8.60683904 C30.97567,8.62763801 30.9740354,8.64828824 30.972322,8.66892213 C30.9203976,9.2975378 30.7956684,9.90558151 30.6066739,10.484575 C30.5972877,10.5124531 30.5880813,10.5401521 30.5787249,10.5677935 C30.5186807,10.7459077 30.4521649,10.9214307 30.3797807,11.093882 C30.3713227,11.1137112 30.3628125,11.1337711 30.3542205,11.1537943 C30.3225365,11.2278627 30.2897531,11.3011169 30.2559103,11.3737783 C30.2469976,11.3928018 30.2382254,11.4114562 30.2293809,11.430076 C30.1527676,11.5913767 30.0706064,11.7501847 29.9833956,11.9057806 C29.9631767,11.9420201 29.9426108,11.9780629 29.9217616,12.0139487 C29.8857796,12.0756744 29.8492232,12.1366807 29.8118842,12.1971523 C29.7992575,12.2178196 29.7863787,12.2384691 29.773404,12.2590623 C29.6713023,12.4208779 29.5636834,12.5788068 29.4507004,12.732549 C29.439484,12.7479745 29.4281461,12.7632845 29.4167516,12.7785569 C29.312859,12.9176759 29.2047896,13.0531581 29.0925194,13.184952 C29.060536,13.2225166 29.0287663,13.2591198 28.9966455,13.2954595 C28.9528056,13.3450581 28.9081528,13.3943437 28.8629002,13.4430643 C28.8479495,13.4591546 28.8331824,13.4749244 28.8183469,13.4906404 L28.8103597,13.4990929 C27.352222,15.0392388 25.2883099,16 23,16 C20.6065452,16 18.4585836,14.9489188 16.9925156,13.283157 L17.1823087,13.4907963 C17.1033502,13.4071875 17.0263286,13.3220565 16.9512781,13.2354675 C16.8231291,13.0880091 16.7004959,12.9355788 16.5834795,12.7787126 C16.5717883,12.7627938 16.5599367,12.7467905 16.5481472,12.7307463 C16.4397754,12.5834169 16.3366407,12.4324668 16.2386582,12.2779276 C16.2068343,12.2276269 16.1758114,12.1774765 16.1453564,12.1270027 C16.122651,12.0894674 16.1004059,12.0519056 16.078461,12.0141478 C16.0576061,11.9781579 16.0370699,11.9421772 16.0168179,11.906043 C15.8810934,11.6640106 15.757774,11.414485 15.6474789,11.1580367 C15.6383011,11.1362241 15.6290835,11.1145142 15.619962,11.0927619 C15.5437997,10.9117467 15.4742752,10.7272284 15.4115139,10.539612 C15.4074236,10.5264285 15.4030123,10.5131198 15.3986358,10.4997981 C15.3064056,10.2201281 15.2295455,9.93385634 15.1686177,9.64173747 C15.1621222,9.60904306 15.1554501,9.57603528 15.1489841,9.54296905 C15.0927244,9.25660191 15.0520787,8.96502434 15.0275646,8.66886987 C15.0257497,8.64569783 15.0239157,8.62238382 15.0221825,8.59904948 C15.017323,8.53461984 15.0133296,8.47020343 15.010103,8.40558508 C15.0079419,8.36158101 15.0060796,8.3171613 15.0045828,8.27267757 C15.0015236,8.18189684 15,8.09112635 15,8 C15,7.90853614 15.0015349,7.81743079 15.0045804,7.72670828 L15,8 C15,7.86595992 15.0033158,7.73242856 15.0098999,7.59949785 C15.0135717,7.52404403 15.0183317,7.4489465 15.0241206,7.37413743 C15.025462,7.35827646 15.0267822,7.34192036 15.0281519,7.32557444 C15.0435592,7.13961303 15.065386,6.95589101 15.0933267,6.77418481 L15.1025697,6.71776517 L15.1025697,6.71776517 Z M23,2 C21.5964664,2 20.3054901,2.48191466 19.2835136,3.28930125 C20.2709336,4.64010982 20.8181818,6.27802426 20.8181818,8 C20.8181818,9.72197574 20.2709336,11.3598902 19.2848734,12.710883 C20.3054901,13.5180853 21.5964664,14 23,14 C24.4035336,14 25.6945099,13.5180853 26.7164864,12.7106987 C25.7291342,11.3599963 25.1818182,9.72209058 25.1818182,8 C25.1818182,6.281572 25.7267954,4.64675658 26.7168222,3.2892644 C25.6953496,2.48222815 24.40399,2 23,2 Z M11.6862915,11.2426407 C12.2385763,11.2426407 12.6862915,11.6903559 12.6862915,12.2426407 C12.6862915,12.7554765 12.3002513,13.1781478 11.8029126,13.235913 L11.6862915,13.2426407 L6.02943725,13.2426407 C5.4771525,13.2426407 5.02943725,12.7949254 5.02943725,12.2426407 C5.02943725,11.7298048 5.41547744,11.3071335 5.91281613,11.2493684 L6.02943725,11.2426407 L11.6862915,11.2426407 Z M28.09,4.824 L27.96932,5.02557204 C27.459031,5.91765604 27.1818182,6.9364878 27.1818182,8 C27.1818182,8.96111004 27.4082263,9.88562918 27.8284139,10.7130073 L27.9756087,10.9851191 L28.091,11.175 L28.1728089,11.0419564 C28.2553711,10.9018628 28.3324046,10.7581216 28.4036093,10.6110326 C28.4238289,10.5702209 28.4432365,10.5289171 28.4621685,10.4873917 L28.4036093,10.6110326 C28.4419234,10.5318863 28.4785498,10.4517708 28.5134419,10.3707327 L28.4621685,10.4873917 C28.5536373,10.2867644 28.6340048,10.0809639 28.7028328,9.87080259 C28.7086086,9.85245595 28.7144936,9.83420802 28.7202932,9.81592213 L28.7028328,9.87080259 C28.7330286,9.7786022 28.7610033,9.6855625 28.7867201,9.5917521 L28.7202932,9.81592213 C28.7506624,9.72017061 28.7786939,9.62337851 28.8043208,9.52561286 L28.8726226,9.23590613 C28.9146081,9.03519451 28.9464436,8.83146647 28.9677872,8.62535629 C28.9800879,8.50679213 28.9889336,8.38689553 28.9942061,8.26607152 L29,8 C29,7.89119027 28.9970981,7.78284856 28.9913416,7.6750628 C28.9909667,7.66786355 28.9905809,7.6608678 28.9901832,7.65387525 L28.9913416,7.6750628 C28.9869259,7.59238242 28.9808305,7.51002917 28.9730769,7.42804274 L28.9901832,7.65387525 C28.9842766,7.55002515 28.9757287,7.44688188 28.9646059,7.34451156 L28.9730769,7.42804274 C28.9415369,7.09453966 28.8825581,6.76710624 28.7975804,6.44841376 C28.7911177,6.4246973 28.7847067,6.40126319 28.7781578,6.37788678 L28.7975804,6.44841376 C28.7757061,6.36637835 28.7521091,6.28492212 28.7268139,6.20409064 L28.7781578,6.37788678 C28.7507685,6.28012121 28.7209647,6.1833647 28.6888148,6.08768561 L28.7268139,6.20409064 C28.6638586,6.00291486 28.5903844,5.80560895 28.5067702,5.61287532 C28.4929764,5.58205255 28.4792065,5.55105595 28.465183,5.52019904 L28.5067702,5.61287532 C28.4696787,5.52737818 28.4305918,5.44278079 28.3895426,5.35914447 L28.465183,5.52019904 C28.3788844,5.3303104 28.2829803,5.14571202 28.1780911,4.96702445 L28.09,4.824 Z M17.9078882,4.82508621 C17.7986772,4.99987536 17.6982157,5.18069298 17.6071167,5.36692591 C17.5808398,5.41970241 17.555906,5.4726585 17.5317553,5.52597761 L17.6071167,5.36692591 C17.5664976,5.44996337 17.5277398,5.53407744 17.4908977,5.61921376 L17.5317553,5.52597761 C17.4938305,5.6097068 17.4578368,5.69433119 17.423806,5.77979197 L17.4908977,5.61921376 C17.4495054,5.71486502 17.4105312,5.81180664 17.3740523,5.90996153 C17.3468734,5.98230133 17.3214412,6.05510112 17.2974143,6.12843165 L17.3740523,5.90996153 C17.3398645,6.0019518 17.3078683,6.09500772 17.2781272,6.18906586 L17.2974143,6.12843165 C17.2327518,6.32578229 17.1782667,6.52697694 17.1343207,6.73134307 C17.1312952,6.74566975 17.1282713,6.7599732 17.1252984,6.77429535 L17.1343207,6.73134307 C17.1161221,6.81597351 17.0997309,6.90114783 17.0851727,6.98681825 L17.1252984,6.77429535 C17.1035002,6.87931057 17.0844468,6.98533126 17.0682168,7.09227903 L17.0851727,6.98681825 C17.064716,7.10719942 17.0478787,7.22856015 17.0347318,7.35076794 L17.0682168,7.09227903 C17.0525646,7.19541896 17.0395383,7.29942113 17.0292081,7.40421522 L17.0347318,7.35076794 C17.0242986,7.44775183 17.0161896,7.5452692 17.0104405,7.64325381 L17.0292081,7.40421522 C17.0190078,7.50769195 17.0114363,7.61194083 17.0065612,7.71689415 L17.0104405,7.64325381 C17.0035011,7.76152726 17,7.88048149 17,8 L17.0065147,8.28210417 C17.0071947,8.29679575 17.0079276,8.31147354 17.008713,8.32613734 C17.0133943,8.41333089 17.0199509,8.5003335 17.0283579,8.58692323 L17.008713,8.32613734 C17.0145117,8.4343892 17.0231796,8.54187897 17.0346423,8.64853196 L17.0283579,8.58692323 C17.0391692,8.69827596 17.0530406,8.80894587 17.0699184,8.91883344 L17.0346423,8.64853196 C17.0463937,8.75787129 17.0610824,8.86633116 17.0786278,8.97383109 L17.0699184,8.91883344 C17.0851194,9.01780333 17.1027591,9.11613861 17.1227984,9.21376657 L17.0786278,8.97383109 C17.0950225,9.07428101 17.1139116,9.17389276 17.1352294,9.27260069 L17.1227984,9.21376657 C17.1642491,9.41570715 17.2159665,9.61462139 17.2776038,9.80986577 C17.2855899,9.83455027 17.2935225,9.85909562 17.3016083,9.88357122 L17.2776038,9.80986577 C17.3079078,9.90585776 17.3406097,10.0009627 17.3756682,10.095104 L17.3016083,9.88357122 C17.3391856,9.9973163 17.3800735,10.1095551 17.4241579,10.2201736 C17.4462034,10.2762799 17.4693431,10.3319008 17.4933163,10.3871456 L17.4241579,10.2201736 C17.4590596,10.3077505 17.4959648,10.3943119 17.534817,10.479801 L17.4933163,10.3871456 C17.5271894,10.4652045 17.5627265,10.5425127 17.5999024,10.6190239 L17.534817,10.479801 C17.6251339,10.6785314 17.7259717,10.8714674 17.8366191,11.0578977 L17.909,11.175 L18.0245418,10.9851399 C18.440024,10.2622551 18.7022624,9.4556709 18.7876162,8.6092386 L18.8112862,8.29004426 L18.8181818,8 C18.8181818,7.03896 18.5918023,6.11443033 18.1717044,5.28699329 L18.0245418,5.01486008 Z M11.6862915,7 C12.2385763,7 12.6862915,7.44771525 12.6862915,8 C12.6862915,8.51283584 12.3002513,8.93550716 11.8029126,8.99327227 L11.6862915,9 L1.78679656,9 C1.23451181,9 0.786796564,8.55228475 0.786796564,8 C0.786796564,7.48716416 1.17283675,7.06449284 1.67017544,7.00672773 L1.78679656,7 L11.6862915,7 Z M11.6862915,2.75735931 C12.2385763,2.75735931 12.6862915,3.20507456 12.6862915,3.75735931 C12.6862915,4.27019515 12.3002513,4.69286647 11.8029126,4.75063158 L11.6862915,4.75735931 L6.02943725,4.75735931 C5.4771525,4.75735931 5.02943725,4.30964406 5.02943725,3.75735931 C5.02943725,3.24452347 5.41547744,2.82185215 5.91281613,2.76408704 L6.02943725,2.75735931 L11.6862915,2.75735931 Z" id="Combined-Shape"></path>
                        </g>
                    </g>
                </g>
            </g>
        </g>
    </g>
</svg>