<?xml version="1.0" encoding="UTF-8"?>
<svg width="39px" height="36px" viewBox="0 0 39 36" version="1.1" xmlns="http://www.w3.org/2000/svg" xmlns:xlink="http://www.w3.org/1999/xlink">
    <!-- Generator: sketchtool 55.2 (78181) - https://sketchapp.com -->
    <title>535C4F9C-AF8B-4B48-B589-E8DADD25B802</title>
    <desc>Created with sketchtool.</desc>
    <g id="Homepage" stroke="none" stroke-width="1" fill="none" fill-rule="evenodd">
        <g id="Restaurants---Inner---Empty-Cart" transform="translate(-735.000000, -2468.000000)" fill="#303133">
            <g id="Advantages-block" transform="translate(0.000000, 2450.000000)">
                <g id="Advantage" transform="translate(729.000000, 11.000000)">
                    <g id="Icon-/-Time">
                        <path d="M44.635,22.0878 C44.249,21.7008 43.623,21.7008 43.236,22.0878 L41.717,23.6088 L41.717,23.1178 C41.717,23.0828 41.715,23.0458 41.711,23.0098 C40.708,13.8828 33.055,7.0008 23.91,7.0008 C14.034,7.0008 6,15.0798 6,25.0098 C6,34.9398 14.034,43.0188 23.91,43.0188 C31.515,43.0188 38.311,38.1718 40.82,30.9578 C41,30.4408 40.728,29.8758 40.212,29.6958 C39.696,29.5148 39.131,29.7888 38.952,30.3058 C36.719,36.7248 30.674,41.0378 23.91,41.0378 C15.125,41.0378 7.978,33.8478 7.978,25.0098 C7.978,16.1718 15.125,8.9808 23.91,8.9808 C32.027,8.9808 38.822,15.0788 39.739,23.1728 L39.739,23.6088 L38.22,22.0878 C37.834,21.7008 37.208,21.7008 36.821,22.0878 C36.435,22.4748 36.435,23.1018 36.821,23.4888 L40.028,26.6988 C40.119,26.7908 40.229,26.8638 40.35,26.9138 C40.471,26.9638 40.599,26.9908 40.728,26.9908 C40.857,26.9908 40.985,26.9638 41.106,26.9138 C41.228,26.8638 41.337,26.7908 41.429,26.6988 L44.635,23.4888 C45.021,23.1018 45.021,22.4748 44.635,22.0878 M23.913,23.9078 C25.065,23.9078 26.002,24.8468 26.002,25.9998 C26.002,27.1538 25.065,28.0918 23.913,28.0918 C22.761,28.0918 21.824,27.1538 21.824,25.9998 C21.824,24.8468 22.761,23.9078 23.913,23.9078 M19.845,25.9998 C19.845,28.2498 21.666,30.0738 23.913,30.0738 C24.676,30.0738 25.382,29.8498 25.992,29.4838 L29.051,32.5468 C29.244,32.7408 29.497,32.8368 29.751,32.8368 C30.004,32.8368 30.257,32.7408 30.45,32.5468 C30.836,32.1598 30.836,31.5328 30.45,31.1458 L27.391,28.0828 C27.757,27.4718 27.98,26.7648 27.98,25.9998 C27.98,24.0848 26.655,22.4898 24.876,22.0548 C24.882,22.0108 24.902,21.9728 24.902,21.9268 L24.902,14.1128 C24.902,13.5658 24.459,13.1228 23.913,13.1228 C23.367,13.1228 22.924,13.5658 22.924,14.1128 L22.924,21.9268 C22.924,21.9728 22.943,22.0108 22.949,22.0548 C21.17,22.4898 19.845,24.0848 19.845,25.9998" id="Page-1"></path>
                    </g>
                </g>
            </g>
        </g>
    </g>
</svg>